<svg width="198" height="59" viewBox="0 0 198 59" fill="none" xmlns="http://www.w3.org/2000/svg">
<rect width="198" height="59" rx="5" fill="#0688FA"/>
<path d="M48.6989 35.216C47.7989 35.216 47.0429 35.042 46.4309 34.694C45.8309 34.346 45.3269 33.812 44.9189 33.092L46.7189 31.76C46.9349 32.156 47.1869 32.45 47.4749 32.642C47.7629 32.834 48.0569 32.93 48.3569 32.93C48.8369 32.93 49.1969 32.786 49.4369 32.498C49.6889 32.198 49.8149 31.658 49.8149 30.878V23.264H52.4609V31.094C52.4609 31.658 52.3829 32.192 52.2269 32.696C52.0829 33.2 51.8549 33.638 51.5429 34.01C51.2429 34.382 50.8529 34.676 50.3729 34.892C49.9049 35.108 49.3469 35.216 48.6989 35.216ZM58.7931 35.216C58.2291 35.216 57.6831 35.114 57.1551 34.91C56.6271 34.694 56.1591 34.388 55.7511 33.992C55.3551 33.596 55.0371 33.11 54.7971 32.534C54.5571 31.946 54.4371 31.28 54.4371 30.536C54.4371 29.792 54.5571 29.132 54.7971 28.556C55.0371 27.968 55.3551 27.476 55.7511 27.08C56.1591 26.684 56.6271 26.384 57.1551 26.18C57.6831 25.964 58.2291 25.856 58.7931 25.856C59.3571 25.856 59.8971 25.964 60.4131 26.18C60.9411 26.384 61.4031 26.684 61.7991 27.08C62.2071 27.476 62.5311 27.968 62.7711 28.556C63.0111 29.132 63.1311 29.792 63.1311 30.536C63.1311 31.28 63.0111 31.946 62.7711 32.534C62.5311 33.11 62.2071 33.596 61.7991 33.992C61.4031 34.388 60.9411 34.694 60.4131 34.91C59.8971 35.114 59.3571 35.216 58.7931 35.216ZM58.7931 33.074C59.3331 33.074 59.7411 32.846 60.0171 32.39C60.2931 31.934 60.4311 31.316 60.4311 30.536C60.4311 29.756 60.2931 29.138 60.0171 28.682C59.7411 28.226 59.3331 27.998 58.7931 27.998C58.2411 27.998 57.8271 28.226 57.5511 28.682C57.2871 29.138 57.1551 29.756 57.1551 30.536C57.1551 31.316 57.2871 31.934 57.5511 32.39C57.8271 32.846 58.2411 33.074 58.7931 33.074ZM64.9434 35V26.072H67.5894V35H64.9434ZM66.2574 24.758C65.8134 24.758 65.4474 24.632 65.1594 24.38C64.8714 24.116 64.7274 23.78 64.7274 23.372C64.7274 22.964 64.8714 22.634 65.1594 22.382C65.4474 22.13 65.8134 22.004 66.2574 22.004C66.7134 22.004 67.0794 22.13 67.3554 22.382C67.6434 22.634 67.7874 22.964 67.7874 23.372C67.7874 23.78 67.6434 24.116 67.3554 24.38C67.0794 24.632 66.7134 24.758 66.2574 24.758ZM69.918 35V26.072H72.078L72.258 27.206H72.33C72.714 26.846 73.134 26.534 73.59 26.27C74.046 25.994 74.58 25.856 75.192 25.856C76.164 25.856 76.866 26.174 77.298 26.81C77.742 27.446 77.964 28.328 77.964 29.456V35H75.318V29.798C75.318 29.15 75.228 28.706 75.048 28.466C74.88 28.226 74.604 28.106 74.22 28.106C73.884 28.106 73.596 28.184 73.356 28.34C73.116 28.484 72.852 28.694 72.564 28.97V35H69.918ZM87.2603 35.216C86.7083 35.216 86.2343 35.132 85.8383 34.964C85.4543 34.796 85.1363 34.562 84.8843 34.262C84.6443 33.962 84.4643 33.602 84.3443 33.182C84.2363 32.75 84.1823 32.276 84.1823 31.76V28.142H82.9583V26.18L84.3263 26.072L84.6323 23.696H86.8283V26.072H88.9703V28.142H86.8283V31.724C86.8283 32.228 86.9303 32.594 87.1343 32.822C87.3503 33.038 87.6323 33.146 87.9803 33.146C88.1243 33.146 88.2683 33.128 88.4123 33.092C88.5683 33.056 88.7063 33.014 88.8263 32.966L89.2403 34.892C89.0003 34.964 88.7183 35.036 88.3943 35.108C88.0703 35.18 87.6923 35.216 87.2603 35.216ZM90.713 35V22.382H93.359V25.478L93.233 27.08C93.569 26.78 93.959 26.504 94.403 26.252C94.847 25.988 95.375 25.856 95.987 25.856C96.959 25.856 97.661 26.174 98.093 26.81C98.537 27.446 98.759 28.328 98.759 29.456V35H96.113V29.798C96.113 29.15 96.023 28.706 95.843 28.466C95.675 28.226 95.399 28.106 95.015 28.106C94.679 28.106 94.391 28.184 94.151 28.34C93.911 28.484 93.647 28.694 93.359 28.97V35H90.713ZM104.992 35.216C104.356 35.216 103.762 35.114 103.21 34.91C102.658 34.694 102.178 34.388 101.77 33.992C101.362 33.584 101.044 33.092 100.816 32.516C100.588 31.94 100.474 31.28 100.474 30.536C100.474 29.816 100.594 29.168 100.834 28.592C101.074 28.004 101.386 27.512 101.77 27.116C102.166 26.708 102.616 26.396 103.12 26.18C103.624 25.964 104.146 25.856 104.686 25.856C105.322 25.856 105.874 25.964 106.342 26.18C106.822 26.396 107.218 26.696 107.53 27.08C107.854 27.464 108.094 27.92 108.25 28.448C108.406 28.964 108.484 29.528 108.484 30.14C108.484 30.38 108.472 30.608 108.448 30.824C108.424 31.04 108.4 31.202 108.376 31.31H103.03C103.15 31.958 103.414 32.438 103.822 32.75C104.242 33.05 104.752 33.2 105.352 33.2C105.988 33.2 106.63 33.002 107.278 32.606L108.16 34.208C107.704 34.52 107.194 34.766 106.63 34.946C106.078 35.126 105.532 35.216 104.992 35.216ZM103.012 29.564H106.234C106.234 29.06 106.12 28.652 105.892 28.34C105.664 28.028 105.28 27.872 104.74 27.872C104.32 27.872 103.948 28.01 103.624 28.286C103.312 28.562 103.108 28.988 103.012 29.564ZM117.354 35.216C116.802 35.216 116.328 35.132 115.932 34.964C115.548 34.796 115.23 34.562 114.978 34.262C114.738 33.962 114.558 33.602 114.438 33.182C114.33 32.75 114.276 32.276 114.276 31.76V28.142H113.052V26.18L114.42 26.072L114.726 23.696H116.922V26.072H119.064V28.142H116.922V31.724C116.922 32.228 117.024 32.594 117.228 32.822C117.444 33.038 117.726 33.146 118.074 33.146C118.218 33.146 118.362 33.128 118.506 33.092C118.662 33.056 118.8 33.014 118.92 32.966L119.334 34.892C119.094 34.964 118.812 35.036 118.488 35.108C118.164 35.18 117.786 35.216 117.354 35.216ZM124.486 35.216C123.85 35.216 123.256 35.114 122.704 34.91C122.152 34.694 121.672 34.388 121.264 33.992C120.856 33.584 120.538 33.092 120.31 32.516C120.082 31.94 119.968 31.28 119.968 30.536C119.968 29.816 120.088 29.168 120.328 28.592C120.568 28.004 120.88 27.512 121.264 27.116C121.66 26.708 122.11 26.396 122.614 26.18C123.118 25.964 123.64 25.856 124.18 25.856C124.816 25.856 125.368 25.964 125.836 26.18C126.316 26.396 126.712 26.696 127.024 27.08C127.348 27.464 127.588 27.92 127.744 28.448C127.9 28.964 127.978 29.528 127.978 30.14C127.978 30.38 127.966 30.608 127.942 30.824C127.918 31.04 127.894 31.202 127.87 31.31H122.524C122.644 31.958 122.908 32.438 123.316 32.75C123.736 33.05 124.246 33.2 124.846 33.2C125.482 33.2 126.124 33.002 126.772 32.606L127.654 34.208C127.198 34.52 126.688 34.766 126.124 34.946C125.572 35.126 125.026 35.216 124.486 35.216ZM122.506 29.564H125.728C125.728 29.06 125.614 28.652 125.386 28.34C125.158 28.028 124.774 27.872 124.234 27.872C123.814 27.872 123.442 28.01 123.118 28.286C122.806 28.562 122.602 28.988 122.506 29.564ZM131.863 35.216C131.455 35.216 131.083 35.144 130.747 35C130.423 34.868 130.147 34.682 129.919 34.442C129.691 34.19 129.511 33.902 129.379 33.578C129.259 33.254 129.199 32.9 129.199 32.516C129.199 31.58 129.595 30.848 130.387 30.32C131.179 29.792 132.457 29.438 134.221 29.258C134.197 28.862 134.077 28.55 133.861 28.322C133.657 28.082 133.309 27.962 132.817 27.962C132.433 27.962 132.049 28.034 131.665 28.178C131.293 28.322 130.891 28.52 130.459 28.772L129.505 27.026C130.081 26.678 130.681 26.396 131.305 26.18C131.941 25.964 132.613 25.856 133.321 25.856C134.473 25.856 135.349 26.186 135.949 26.846C136.561 27.494 136.867 28.508 136.867 29.888V35H134.707L134.527 34.082H134.455C134.071 34.418 133.669 34.694 133.249 34.91C132.829 35.114 132.367 35.216 131.863 35.216ZM132.763 33.164C133.063 33.164 133.321 33.098 133.537 32.966C133.753 32.834 133.981 32.648 134.221 32.408V30.842C133.285 30.974 132.637 31.166 132.277 31.418C131.917 31.67 131.737 31.97 131.737 32.318C131.737 32.606 131.827 32.822 132.007 32.966C132.199 33.098 132.451 33.164 132.763 33.164ZM139.106 35V26.072H141.266L141.446 27.224H141.518C141.89 26.852 142.286 26.534 142.706 26.27C143.126 25.994 143.63 25.856 144.218 25.856C144.854 25.856 145.364 25.988 145.748 26.252C146.144 26.504 146.456 26.87 146.684 27.35C147.08 26.942 147.494 26.594 147.926 26.306C148.37 26.006 148.892 25.856 149.492 25.856C150.452 25.856 151.154 26.18 151.598 26.828C152.054 27.464 152.282 28.34 152.282 29.456V35H149.636V29.798C149.636 29.15 149.546 28.706 149.366 28.466C149.198 28.226 148.922 28.106 148.538 28.106C148.094 28.106 147.584 28.394 147.008 28.97V35H144.362V29.798C144.362 29.15 144.272 28.706 144.092 28.466C143.924 28.226 143.648 28.106 143.264 28.106C142.808 28.106 142.304 28.394 141.752 28.97V35H139.106Z" fill="white"/>
</svg>
