<svg width="151" height="42" viewBox="0 0 151 42" fill="none" xmlns="http://www.w3.org/2000/svg">
<path d="M0 5C0 2.23858 2.23858 0 5 0H146C148.761 0 151 2.23858 151 5V37C151 39.7614 148.761 42 146 42H5C2.23858 42 0 39.7614 0 37V5Z" fill="#0688FA"/>
<path d="M37.8854 26.216C37.0814 26.216 36.3254 26.09 35.6174 25.838C34.9214 25.574 34.3154 25.19 33.7994 24.686C33.2834 24.182 32.8754 23.558 32.5754 22.814C32.2874 22.058 32.1434 21.188 32.1434 20.204C32.1434 19.232 32.2934 18.368 32.5934 17.612C32.8934 16.844 33.3014 16.196 33.8174 15.668C34.3454 15.14 34.9574 14.738 35.6534 14.462C36.3494 14.186 37.0874 14.048 37.8674 14.048C38.7194 14.048 39.4514 14.204 40.0634 14.516C40.6754 14.828 41.1734 15.182 41.5574 15.578L40.1714 17.27C39.8714 17.006 39.5534 16.784 39.2174 16.604C38.8814 16.424 38.4614 16.334 37.9574 16.334C37.5014 16.334 37.0814 16.424 36.6974 16.604C36.3254 16.772 36.0014 17.018 35.7254 17.342C35.4494 17.666 35.2334 18.062 35.0774 18.53C34.9334 18.998 34.8614 19.526 34.8614 20.114C34.8614 21.326 35.1314 22.268 35.6714 22.94C36.2234 23.6 37.0514 23.93 38.1554 23.93C38.3954 23.93 38.6294 23.9 38.8574 23.84C39.0854 23.78 39.2714 23.69 39.4154 23.57V21.554H37.4714V19.394H41.7554V24.794C41.3474 25.19 40.8074 25.526 40.1354 25.802C39.4634 26.078 38.7134 26.216 37.8854 26.216ZM47.9599 26.216C47.3239 26.216 46.7299 26.114 46.1779 25.91C45.6259 25.694 45.1459 25.388 44.7379 24.992C44.3299 24.584 44.0119 24.092 43.7839 23.516C43.5559 22.94 43.4419 22.28 43.4419 21.536C43.4419 20.816 43.5619 20.168 43.8019 19.592C44.0419 19.004 44.3539 18.512 44.7379 18.116C45.1339 17.708 45.5839 17.396 46.0879 17.18C46.5919 16.964 47.1139 16.856 47.6539 16.856C48.2899 16.856 48.8419 16.964 49.3099 17.18C49.7899 17.396 50.1859 17.696 50.4979 18.08C50.8219 18.464 51.0619 18.92 51.2179 19.448C51.3739 19.964 51.4519 20.528 51.4519 21.14C51.4519 21.38 51.4399 21.608 51.4159 21.824C51.3919 22.04 51.3679 22.202 51.3439 22.31H45.9979C46.1179 22.958 46.3819 23.438 46.7899 23.75C47.2099 24.05 47.7199 24.2 48.3199 24.2C48.9559 24.2 49.5979 24.002 50.2459 23.606L51.1279 25.208C50.6719 25.52 50.1619 25.766 49.5979 25.946C49.0459 26.126 48.4999 26.216 47.9599 26.216ZM45.9799 20.564H49.2019C49.2019 20.06 49.0879 19.652 48.8599 19.34C48.6319 19.028 48.2479 18.872 47.7079 18.872C47.2879 18.872 46.9159 19.01 46.5919 19.286C46.2799 19.562 46.0759 19.988 45.9799 20.564ZM56.5426 26.216C55.9906 26.216 55.5166 26.132 55.1206 25.964C54.7366 25.796 54.4186 25.562 54.1666 25.262C53.9266 24.962 53.7466 24.602 53.6266 24.182C53.5186 23.75 53.4646 23.276 53.4646 22.76V19.142H52.2406V17.18L53.6086 17.072L53.9146 14.696H56.1106V17.072H58.2526V19.142H56.1106V22.724C56.1106 23.228 56.2126 23.594 56.4166 23.822C56.6326 24.038 56.9146 24.146 57.2626 24.146C57.4066 24.146 57.5506 24.128 57.6946 24.092C57.8506 24.056 57.9886 24.014 58.1086 23.966L58.5226 25.892C58.2826 25.964 58.0006 26.036 57.6766 26.108C57.3526 26.18 56.9746 26.216 56.5426 26.216ZM65.8487 26.216C65.4407 26.216 65.0687 26.144 64.7327 26C64.4087 25.868 64.1327 25.682 63.9047 25.442C63.6767 25.19 63.4967 24.902 63.3647 24.578C63.2447 24.254 63.1847 23.9 63.1847 23.516C63.1847 22.58 63.5807 21.848 64.3727 21.32C65.1647 20.792 66.4427 20.438 68.2067 20.258C68.1827 19.862 68.0627 19.55 67.8467 19.322C67.6427 19.082 67.2947 18.962 66.8027 18.962C66.4187 18.962 66.0347 19.034 65.6507 19.178C65.2787 19.322 64.8767 19.52 64.4447 19.772L63.4907 18.026C64.0667 17.678 64.6667 17.396 65.2907 17.18C65.9267 16.964 66.5987 16.856 67.3067 16.856C68.4587 16.856 69.3347 17.186 69.9347 17.846C70.5467 18.494 70.8527 19.508 70.8527 20.888V26H68.6927L68.5127 25.082H68.4407C68.0567 25.418 67.6547 25.694 67.2347 25.91C66.8147 26.114 66.3527 26.216 65.8487 26.216ZM66.7487 24.164C67.0487 24.164 67.3067 24.098 67.5227 23.966C67.7387 23.834 67.9667 23.648 68.2067 23.408V21.842C67.2707 21.974 66.6227 22.166 66.2627 22.418C65.9027 22.67 65.7227 22.97 65.7227 23.318C65.7227 23.606 65.8127 23.822 65.9927 23.966C66.1847 24.098 66.4367 24.164 66.7487 24.164ZM76.9104 26V14.264H80.2224C81.1224 14.264 81.9324 14.378 82.6524 14.606C83.3724 14.834 83.9904 15.188 84.5064 15.668C85.0224 16.136 85.4184 16.736 85.6944 17.468C85.9704 18.2 86.1084 19.07 86.1084 20.078C86.1084 21.086 85.9704 21.962 85.6944 22.706C85.4184 23.45 85.0284 24.068 84.5244 24.56C84.0204 25.04 83.4144 25.4 82.7064 25.64C82.0104 25.88 81.2304 26 80.3664 26H76.9104ZM79.5564 23.858H80.0604C80.5644 23.858 81.0204 23.792 81.4284 23.66C81.8364 23.528 82.1844 23.318 82.4724 23.03C82.7604 22.73 82.9824 22.34 83.1384 21.86C83.3064 21.38 83.3904 20.786 83.3904 20.078C83.3904 19.382 83.3064 18.8 83.1384 18.332C82.9824 17.852 82.7604 17.474 82.4724 17.198C82.1844 16.91 81.8364 16.706 81.4284 16.586C81.0204 16.466 80.5644 16.406 80.0604 16.406H79.5564V23.858ZM92.1162 26.216C91.4802 26.216 90.8862 26.114 90.3342 25.91C89.7822 25.694 89.3022 25.388 88.8942 24.992C88.4862 24.584 88.1682 24.092 87.9402 23.516C87.7122 22.94 87.5982 22.28 87.5982 21.536C87.5982 20.816 87.7182 20.168 87.9582 19.592C88.1982 19.004 88.5102 18.512 88.8942 18.116C89.2902 17.708 89.7402 17.396 90.2442 17.18C90.7482 16.964 91.2702 16.856 91.8102 16.856C92.4462 16.856 92.9982 16.964 93.4662 17.18C93.9462 17.396 94.3422 17.696 94.6542 18.08C94.9782 18.464 95.2182 18.92 95.3742 19.448C95.5302 19.964 95.6082 20.528 95.6082 21.14C95.6082 21.38 95.5962 21.608 95.5722 21.824C95.5482 22.04 95.5242 22.202 95.5002 22.31H90.1542C90.2742 22.958 90.5382 23.438 90.9462 23.75C91.3662 24.05 91.8762 24.2 92.4762 24.2C93.1122 24.2 93.7542 24.002 94.4022 23.606L95.2842 25.208C94.8282 25.52 94.3182 25.766 93.7542 25.946C93.2022 26.126 92.6562 26.216 92.1162 26.216ZM90.1362 20.564H93.3582C93.3582 20.06 93.2442 19.652 93.0162 19.34C92.7882 19.028 92.4042 18.872 91.8642 18.872C91.4442 18.872 91.0722 19.01 90.7482 19.286C90.4362 19.562 90.2322 19.988 90.1362 20.564ZM97.4366 26V17.072H99.5966L99.7766 18.224H99.8486C100.221 17.852 100.617 17.534 101.037 17.27C101.457 16.994 101.961 16.856 102.549 16.856C103.185 16.856 103.695 16.988 104.079 17.252C104.475 17.504 104.787 17.87 105.015 18.35C105.411 17.942 105.825 17.594 106.257 17.306C106.701 17.006 107.223 16.856 107.823 16.856C108.783 16.856 109.485 17.18 109.929 17.828C110.385 18.464 110.613 19.34 110.613 20.456V26H107.967V20.798C107.967 20.15 107.877 19.706 107.697 19.466C107.529 19.226 107.253 19.106 106.869 19.106C106.425 19.106 105.915 19.394 105.339 19.97V26H102.693V20.798C102.693 20.15 102.603 19.706 102.423 19.466C102.255 19.226 101.979 19.106 101.595 19.106C101.139 19.106 100.635 19.394 100.083 19.97V26H97.4366ZM116.704 26.216C116.14 26.216 115.594 26.114 115.066 25.91C114.538 25.694 114.07 25.388 113.662 24.992C113.266 24.596 112.948 24.11 112.708 23.534C112.468 22.946 112.348 22.28 112.348 21.536C112.348 20.792 112.468 20.132 112.708 19.556C112.948 18.968 113.266 18.476 113.662 18.08C114.07 17.684 114.538 17.384 115.066 17.18C115.594 16.964 116.14 16.856 116.704 16.856C117.268 16.856 117.808 16.964 118.324 17.18C118.852 17.384 119.314 17.684 119.71 18.08C120.118 18.476 120.442 18.968 120.682 19.556C120.922 20.132 121.042 20.792 121.042 21.536C121.042 22.28 120.922 22.946 120.682 23.534C120.442 24.11 120.118 24.596 119.71 24.992C119.314 25.388 118.852 25.694 118.324 25.91C117.808 26.114 117.268 26.216 116.704 26.216ZM116.704 24.074C117.244 24.074 117.652 23.846 117.928 23.39C118.204 22.934 118.342 22.316 118.342 21.536C118.342 20.756 118.204 20.138 117.928 19.682C117.652 19.226 117.244 18.998 116.704 18.998C116.152 18.998 115.738 19.226 115.462 19.682C115.198 20.138 115.066 20.756 115.066 21.536C115.066 22.316 115.198 22.934 115.462 23.39C115.738 23.846 116.152 24.074 116.704 24.074Z" fill="white"/>
</svg>
