<svg width="302" height="92" viewBox="0 0 302 92" fill="none" xmlns="http://www.w3.org/2000/svg">
<g filter="url(#filter0_d)">
<path d="M15 15C15 12.2386 17.2386 10 20 10H282C284.761 10 287 12.2386 287 15V67C287 69.7614 284.761 72 282 72H20C17.2386 72 15 69.7614 15 67V15Z" fill="white"/>
<path d="M112.385 46.216C111.581 46.216 110.825 46.09 110.117 45.838C109.421 45.574 108.815 45.19 108.299 44.686C107.783 44.182 107.375 43.558 107.075 42.814C106.787 42.058 106.643 41.188 106.643 40.204C106.643 39.232 106.793 38.368 107.093 37.612C107.393 36.844 107.801 36.196 108.317 35.668C108.845 35.14 109.457 34.738 110.153 34.462C110.849 34.186 111.587 34.048 112.367 34.048C113.219 34.048 113.951 34.204 114.563 34.516C115.175 34.828 115.673 35.182 116.057 35.578L114.671 37.27C114.371 37.006 114.053 36.784 113.717 36.604C113.381 36.424 112.961 36.334 112.457 36.334C112.001 36.334 111.581 36.424 111.197 36.604C110.825 36.772 110.501 37.018 110.225 37.342C109.949 37.666 109.733 38.062 109.577 38.53C109.433 38.998 109.361 39.526 109.361 40.114C109.361 41.326 109.631 42.268 110.171 42.94C110.723 43.6 111.551 43.93 112.655 43.93C112.895 43.93 113.129 43.9 113.357 43.84C113.585 43.78 113.771 43.69 113.915 43.57V41.554H111.971V39.394H116.255V44.794C115.847 45.19 115.307 45.526 114.635 45.802C113.963 46.078 113.213 46.216 112.385 46.216ZM122.46 46.216C121.824 46.216 121.23 46.114 120.678 45.91C120.126 45.694 119.646 45.388 119.238 44.992C118.83 44.584 118.512 44.092 118.284 43.516C118.056 42.94 117.942 42.28 117.942 41.536C117.942 40.816 118.062 40.168 118.302 39.592C118.542 39.004 118.854 38.512 119.238 38.116C119.634 37.708 120.084 37.396 120.588 37.18C121.092 36.964 121.614 36.856 122.154 36.856C122.79 36.856 123.342 36.964 123.81 37.18C124.29 37.396 124.686 37.696 124.998 38.08C125.322 38.464 125.562 38.92 125.718 39.448C125.874 39.964 125.952 40.528 125.952 41.14C125.952 41.38 125.94 41.608 125.916 41.824C125.892 42.04 125.868 42.202 125.844 42.31H120.498C120.618 42.958 120.882 43.438 121.29 43.75C121.71 44.05 122.22 44.2 122.82 44.2C123.456 44.2 124.098 44.002 124.746 43.606L125.628 45.208C125.172 45.52 124.662 45.766 124.098 45.946C123.546 46.126 123 46.216 122.46 46.216ZM120.48 40.564H123.702C123.702 40.06 123.588 39.652 123.36 39.34C123.132 39.028 122.748 38.872 122.208 38.872C121.788 38.872 121.416 39.01 121.092 39.286C120.78 39.562 120.576 39.988 120.48 40.564ZM131.043 46.216C130.491 46.216 130.017 46.132 129.621 45.964C129.237 45.796 128.919 45.562 128.667 45.262C128.427 44.962 128.247 44.602 128.127 44.182C128.019 43.75 127.965 43.276 127.965 42.76V39.142H126.741V37.18L128.109 37.072L128.415 34.696H130.611V37.072H132.753V39.142H130.611V42.724C130.611 43.228 130.713 43.594 130.917 43.822C131.133 44.038 131.415 44.146 131.763 44.146C131.907 44.146 132.051 44.128 132.195 44.092C132.351 44.056 132.489 44.014 132.609 43.966L133.023 45.892C132.783 45.964 132.501 46.036 132.177 46.108C131.853 46.18 131.475 46.216 131.043 46.216ZM140.349 46.216C139.941 46.216 139.569 46.144 139.233 46C138.909 45.868 138.633 45.682 138.405 45.442C138.177 45.19 137.997 44.902 137.865 44.578C137.745 44.254 137.685 43.9 137.685 43.516C137.685 42.58 138.081 41.848 138.873 41.32C139.665 40.792 140.943 40.438 142.707 40.258C142.683 39.862 142.563 39.55 142.347 39.322C142.143 39.082 141.795 38.962 141.303 38.962C140.919 38.962 140.535 39.034 140.151 39.178C139.779 39.322 139.377 39.52 138.945 39.772L137.991 38.026C138.567 37.678 139.167 37.396 139.791 37.18C140.427 36.964 141.099 36.856 141.807 36.856C142.959 36.856 143.835 37.186 144.435 37.846C145.047 38.494 145.353 39.508 145.353 40.888V46H143.193L143.013 45.082H142.941C142.557 45.418 142.155 45.694 141.735 45.91C141.315 46.114 140.853 46.216 140.349 46.216ZM141.249 44.164C141.549 44.164 141.807 44.098 142.023 43.966C142.239 43.834 142.467 43.648 142.707 43.408V41.842C141.771 41.974 141.123 42.166 140.763 42.418C140.403 42.67 140.223 42.97 140.223 43.318C140.223 43.606 140.313 43.822 140.493 43.966C140.685 44.098 140.937 44.164 141.249 44.164ZM151.41 46V34.264H154.722C155.622 34.264 156.432 34.378 157.152 34.606C157.872 34.834 158.49 35.188 159.006 35.668C159.522 36.136 159.918 36.736 160.194 37.468C160.47 38.2 160.608 39.07 160.608 40.078C160.608 41.086 160.47 41.962 160.194 42.706C159.918 43.45 159.528 44.068 159.024 44.56C158.52 45.04 157.914 45.4 157.206 45.64C156.51 45.88 155.73 46 154.866 46H151.41ZM154.056 43.858H154.56C155.064 43.858 155.52 43.792 155.928 43.66C156.336 43.528 156.684 43.318 156.972 43.03C157.26 42.73 157.482 42.34 157.638 41.86C157.806 41.38 157.89 40.786 157.89 40.078C157.89 39.382 157.806 38.8 157.638 38.332C157.482 37.852 157.26 37.474 156.972 37.198C156.684 36.91 156.336 36.706 155.928 36.586C155.52 36.466 155.064 36.406 154.56 36.406H154.056V43.858ZM166.616 46.216C165.98 46.216 165.386 46.114 164.834 45.91C164.282 45.694 163.802 45.388 163.394 44.992C162.986 44.584 162.668 44.092 162.44 43.516C162.212 42.94 162.098 42.28 162.098 41.536C162.098 40.816 162.218 40.168 162.458 39.592C162.698 39.004 163.01 38.512 163.394 38.116C163.79 37.708 164.24 37.396 164.744 37.18C165.248 36.964 165.77 36.856 166.31 36.856C166.946 36.856 167.498 36.964 167.966 37.18C168.446 37.396 168.842 37.696 169.154 38.08C169.478 38.464 169.718 38.92 169.874 39.448C170.03 39.964 170.108 40.528 170.108 41.14C170.108 41.38 170.096 41.608 170.072 41.824C170.048 42.04 170.024 42.202 170 42.31H164.654C164.774 42.958 165.038 43.438 165.446 43.75C165.866 44.05 166.376 44.2 166.976 44.2C167.612 44.2 168.254 44.002 168.902 43.606L169.784 45.208C169.328 45.52 168.818 45.766 168.254 45.946C167.702 46.126 167.156 46.216 166.616 46.216ZM164.636 40.564H167.858C167.858 40.06 167.744 39.652 167.516 39.34C167.288 39.028 166.904 38.872 166.364 38.872C165.944 38.872 165.572 39.01 165.248 39.286C164.936 39.562 164.732 39.988 164.636 40.564ZM171.937 46V37.072H174.097L174.277 38.224H174.349C174.721 37.852 175.117 37.534 175.537 37.27C175.957 36.994 176.461 36.856 177.049 36.856C177.685 36.856 178.195 36.988 178.579 37.252C178.975 37.504 179.287 37.87 179.515 38.35C179.911 37.942 180.325 37.594 180.757 37.306C181.201 37.006 181.723 36.856 182.323 36.856C183.283 36.856 183.985 37.18 184.429 37.828C184.885 38.464 185.113 39.34 185.113 40.456V46H182.467V40.798C182.467 40.15 182.377 39.706 182.197 39.466C182.029 39.226 181.753 39.106 181.369 39.106C180.925 39.106 180.415 39.394 179.839 39.97V46H177.193V40.798C177.193 40.15 177.103 39.706 176.923 39.466C176.755 39.226 176.479 39.106 176.095 39.106C175.639 39.106 175.135 39.394 174.583 39.97V46H171.937ZM191.204 46.216C190.64 46.216 190.094 46.114 189.566 45.91C189.038 45.694 188.57 45.388 188.162 44.992C187.766 44.596 187.448 44.11 187.208 43.534C186.968 42.946 186.848 42.28 186.848 41.536C186.848 40.792 186.968 40.132 187.208 39.556C187.448 38.968 187.766 38.476 188.162 38.08C188.57 37.684 189.038 37.384 189.566 37.18C190.094 36.964 190.64 36.856 191.204 36.856C191.768 36.856 192.308 36.964 192.824 37.18C193.352 37.384 193.814 37.684 194.21 38.08C194.618 38.476 194.942 38.968 195.182 39.556C195.422 40.132 195.542 40.792 195.542 41.536C195.542 42.28 195.422 42.946 195.182 43.534C194.942 44.11 194.618 44.596 194.21 44.992C193.814 45.388 193.352 45.694 192.824 45.91C192.308 46.114 191.768 46.216 191.204 46.216ZM191.204 44.074C191.744 44.074 192.152 43.846 192.428 43.39C192.704 42.934 192.842 42.316 192.842 41.536C192.842 40.756 192.704 40.138 192.428 39.682C192.152 39.226 191.744 38.998 191.204 38.998C190.652 38.998 190.238 39.226 189.962 39.682C189.698 40.138 189.566 40.756 189.566 41.536C189.566 42.316 189.698 42.934 189.962 43.39C190.238 43.846 190.652 44.074 191.204 44.074Z" fill="#002240"/>
</g>
<defs>
<filter id="filter0_d" x="0" y="0" width="302" height="92" filterUnits="userSpaceOnUse" color-interpolation-filters="sRGB">
<feFlood flood-opacity="0" result="BackgroundImageFix"/>
<feColorMatrix in="SourceAlpha" type="matrix" values="0 0 0 0 0 0 0 0 0 0 0 0 0 0 0 0 0 0 127 0"/>
<feOffset dy="5"/>
<feGaussianBlur stdDeviation="7.5"/>
<feColorMatrix type="matrix" values="0 0 0 0 0 0 0 0 0 0 0 0 0 0 0 0 0 0 0.3 0"/>
<feBlend mode="normal" in2="BackgroundImageFix" result="effect1_dropShadow"/>
<feBlend mode="normal" in="SourceGraphic" in2="effect1_dropShadow" result="shape"/>
</filter>
</defs>
</svg>
