<svg width="98" height="44" viewBox="0 0 98 44" fill="none" xmlns="http://www.w3.org/2000/svg">
<path d="M26.3919 27V15.264H29.0379V24.768H33.6819V27H26.3919ZM39.0802 27.216C38.5162 27.216 37.9702 27.114 37.4422 26.91C36.9142 26.694 36.4462 26.388 36.0382 25.992C35.6422 25.596 35.3242 25.11 35.0842 24.534C34.8442 23.946 34.7242 23.28 34.7242 22.536C34.7242 21.792 34.8442 21.132 35.0842 20.556C35.3242 19.968 35.6422 19.476 36.0382 19.08C36.4462 18.684 36.9142 18.384 37.4422 18.18C37.9702 17.964 38.5162 17.856 39.0802 17.856C39.6442 17.856 40.1842 17.964 40.7002 18.18C41.2282 18.384 41.6902 18.684 42.0862 19.08C42.4942 19.476 42.8182 19.968 43.0582 20.556C43.2982 21.132 43.4182 21.792 43.4182 22.536C43.4182 23.28 43.2982 23.946 43.0582 24.534C42.8182 25.11 42.4942 25.596 42.0862 25.992C41.6902 26.388 41.2282 26.694 40.7002 26.91C40.1842 27.114 39.6442 27.216 39.0802 27.216ZM39.0802 25.074C39.6202 25.074 40.0282 24.846 40.3042 24.39C40.5802 23.934 40.7182 23.316 40.7182 22.536C40.7182 21.756 40.5802 21.138 40.3042 20.682C40.0282 20.226 39.6202 19.998 39.0802 19.998C38.5282 19.998 38.1142 20.226 37.8382 20.682C37.5742 21.138 37.4422 21.756 37.4422 22.536C37.4422 23.316 37.5742 23.934 37.8382 24.39C38.1142 24.846 38.5282 25.074 39.0802 25.074ZM48.4165 30.798C47.8885 30.798 47.3965 30.75 46.9405 30.654C46.4965 30.57 46.1005 30.438 45.7525 30.258C45.4165 30.078 45.1525 29.844 44.9605 29.556C44.7685 29.268 44.6725 28.926 44.6725 28.53C44.6725 27.81 45.0985 27.21 45.9505 26.73V26.658C45.7105 26.502 45.5125 26.304 45.3565 26.064C45.2005 25.824 45.1225 25.518 45.1225 25.146C45.1225 24.822 45.2185 24.516 45.4105 24.228C45.6025 23.928 45.8425 23.676 46.1305 23.472V23.4C45.8185 23.184 45.5365 22.878 45.2845 22.482C45.0445 22.074 44.9245 21.606 44.9245 21.078C44.9245 20.538 45.0265 20.07 45.2305 19.674C45.4345 19.266 45.7045 18.93 46.0405 18.666C46.3885 18.39 46.7845 18.186 47.2285 18.054C47.6725 17.922 48.1345 17.856 48.6145 17.856C49.1425 17.856 49.6045 17.928 50.0005 18.072H53.2585V19.998H51.8365C51.9205 20.13 51.9865 20.298 52.0345 20.502C52.0945 20.706 52.1245 20.928 52.1245 21.168C52.1245 21.684 52.0345 22.134 51.8545 22.518C51.6745 22.89 51.4225 23.202 51.0985 23.454C50.7865 23.694 50.4145 23.874 49.9825 23.994C49.5625 24.114 49.1065 24.174 48.6145 24.174C48.2665 24.174 47.9065 24.114 47.5345 23.994C47.4145 24.09 47.3305 24.186 47.2825 24.282C47.2345 24.378 47.2105 24.504 47.2105 24.66C47.2105 24.888 47.3065 25.056 47.4985 25.164C47.7025 25.272 48.0565 25.326 48.5605 25.326H50.0005C51.1045 25.326 51.9445 25.506 52.5205 25.866C53.1085 26.214 53.4025 26.79 53.4025 27.594C53.4025 28.062 53.2825 28.488 53.0425 28.872C52.8145 29.268 52.4845 29.604 52.0525 29.88C51.6205 30.168 51.0985 30.39 50.4865 30.546C49.8745 30.714 49.1845 30.798 48.4165 30.798ZM48.6145 22.572C48.9625 22.572 49.2505 22.452 49.4785 22.212C49.7185 21.96 49.8385 21.582 49.8385 21.078C49.8385 20.61 49.7185 20.256 49.4785 20.016C49.2505 19.764 48.9625 19.638 48.6145 19.638C48.2665 19.638 47.9725 19.758 47.7325 19.998C47.5045 20.238 47.3905 20.598 47.3905 21.078C47.3905 21.582 47.5045 21.96 47.7325 22.212C47.9725 22.452 48.2665 22.572 48.6145 22.572ZM48.8305 29.142C49.4305 29.142 49.9225 29.034 50.3065 28.818C50.6905 28.614 50.8825 28.356 50.8825 28.044C50.8825 27.768 50.7625 27.582 50.5225 27.486C50.2945 27.39 49.9585 27.342 49.5145 27.342H48.5965C48.2845 27.342 48.0325 27.33 47.8405 27.306C47.6485 27.294 47.4805 27.27 47.3365 27.234C47.0125 27.522 46.8505 27.816 46.8505 28.116C46.8505 28.452 47.0305 28.704 47.3905 28.872C47.7505 29.052 48.2305 29.142 48.8305 29.142ZM58.6653 27V15.264H61.3113V27H58.6653ZM63.8634 27V18.072H66.0234L66.2034 19.206H66.2754C66.6594 18.846 67.0794 18.534 67.5354 18.27C67.9914 17.994 68.5254 17.856 69.1374 17.856C70.1094 17.856 70.8114 18.174 71.2434 18.81C71.6874 19.446 71.9094 20.328 71.9094 21.456V27H69.2634V21.798C69.2634 21.15 69.1734 20.706 68.9934 20.466C68.8254 20.226 68.5494 20.106 68.1654 20.106C67.8294 20.106 67.5414 20.184 67.3014 20.34C67.0614 20.484 66.7974 20.694 66.5094 20.97V27H63.8634Z" fill="#0688FA"/>
<path d="M6 1.5H92V0.5H6V1.5ZM96.5 6V38H97.5V6H96.5ZM92 42.5H6V43.5H92V42.5ZM1.5 38V6H0.5V38H1.5ZM6 42.5C3.51472 42.5 1.5 40.4853 1.5 38H0.5C0.5 41.0376 2.96243 43.5 6 43.5V42.5ZM96.5 38C96.5 40.4853 94.4853 42.5 92 42.5V43.5C95.0376 43.5 97.5 41.0376 97.5 38H96.5ZM92 1.5C94.4853 1.5 96.5 3.51472 96.5 6H97.5C97.5 2.96243 95.0376 0.5 92 0.5V1.5ZM6 0.5C2.96243 0.5 0.5 2.96244 0.5 6H1.5C1.5 3.51472 3.51472 1.5 6 1.5V0.5Z" fill="#0688FA"/>
</svg>
