<svg width="272" height="62" viewBox="0 0 272 62" fill="none" xmlns="http://www.w3.org/2000/svg">
<path d="M78.6223 36V24.264H82.8523C83.4763 24.264 84.0583 24.324 84.5983 24.444C85.1503 24.564 85.6303 24.768 86.0383 25.056C86.4463 25.332 86.7703 25.704 87.0103 26.172C87.2503 26.64 87.3703 27.222 87.3703 27.918C87.3703 28.782 87.1783 29.496 86.7943 30.06C86.4223 30.612 85.9183 31.026 85.2823 31.302L87.9463 36H84.9763L82.7263 31.77H81.2683V36H78.6223ZM81.2683 29.664H82.6363C83.3323 29.664 83.8603 29.52 84.2203 29.232C84.5923 28.932 84.7783 28.494 84.7783 27.918C84.7783 27.342 84.5923 26.94 84.2203 26.712C83.8603 26.484 83.3323 26.37 82.6363 26.37H81.2683V29.664ZM93.2656 36.216C92.6296 36.216 92.0356 36.114 91.4836 35.91C90.9316 35.694 90.4516 35.388 90.0436 34.992C89.6356 34.584 89.3176 34.092 89.0896 33.516C88.8616 32.94 88.7476 32.28 88.7476 31.536C88.7476 30.816 88.8676 30.168 89.1076 29.592C89.3476 29.004 89.6596 28.512 90.0436 28.116C90.4396 27.708 90.8896 27.396 91.3936 27.18C91.8976 26.964 92.4196 26.856 92.9596 26.856C93.5956 26.856 94.1476 26.964 94.6156 27.18C95.0956 27.396 95.4916 27.696 95.8036 28.08C96.1276 28.464 96.3676 28.92 96.5236 29.448C96.6796 29.964 96.7576 30.528 96.7576 31.14C96.7576 31.38 96.7456 31.608 96.7216 31.824C96.6976 32.04 96.6736 32.202 96.6496 32.31H91.3036C91.4236 32.958 91.6876 33.438 92.0956 33.75C92.5156 34.05 93.0256 34.2 93.6256 34.2C94.2616 34.2 94.9036 34.002 95.5516 33.606L96.4336 35.208C95.9776 35.52 95.4676 35.766 94.9036 35.946C94.3516 36.126 93.8056 36.216 93.2656 36.216ZM91.2856 30.564H94.5076C94.5076 30.06 94.3936 29.652 94.1656 29.34C93.9376 29.028 93.5536 28.872 93.0136 28.872C92.5936 28.872 92.2216 29.01 91.8976 29.286C91.5856 29.562 91.3816 29.988 91.2856 30.564ZM100.643 36.216C100.235 36.216 99.8627 36.144 99.5267 36C99.2027 35.868 98.9267 35.682 98.6987 35.442C98.4707 35.19 98.2907 34.902 98.1587 34.578C98.0387 34.254 97.9787 33.9 97.9787 33.516C97.9787 32.58 98.3747 31.848 99.1667 31.32C99.9587 30.792 101.237 30.438 103.001 30.258C102.977 29.862 102.857 29.55 102.641 29.322C102.437 29.082 102.089 28.962 101.597 28.962C101.213 28.962 100.829 29.034 100.445 29.178C100.073 29.322 99.6707 29.52 99.2387 29.772L98.2847 28.026C98.8607 27.678 99.4607 27.396 100.085 27.18C100.721 26.964 101.393 26.856 102.101 26.856C103.253 26.856 104.129 27.186 104.729 27.846C105.341 28.494 105.647 29.508 105.647 30.888V36H103.487L103.307 35.082H103.235C102.851 35.418 102.449 35.694 102.029 35.91C101.609 36.114 101.147 36.216 100.643 36.216ZM101.543 34.164C101.843 34.164 102.101 34.098 102.317 33.966C102.533 33.834 102.761 33.648 103.001 33.408V31.842C102.065 31.974 101.417 32.166 101.057 32.418C100.697 32.67 100.517 32.97 100.517 33.318C100.517 33.606 100.607 33.822 100.787 33.966C100.979 34.098 101.231 34.164 101.543 34.164ZM111.071 36.216C110.519 36.216 110.015 36.108 109.559 35.892C109.115 35.676 108.731 35.37 108.407 34.974C108.095 34.566 107.849 34.074 107.669 33.498C107.501 32.922 107.417 32.268 107.417 31.536C107.417 30.804 107.519 30.15 107.723 29.574C107.939 28.998 108.215 28.512 108.551 28.116C108.899 27.708 109.295 27.396 109.739 27.18C110.195 26.964 110.657 26.856 111.125 26.856C111.629 26.856 112.043 26.94 112.367 27.108C112.691 27.276 113.009 27.504 113.321 27.792L113.213 26.424V23.382H115.859V36H113.699L113.519 35.118H113.447C113.135 35.43 112.769 35.694 112.349 35.91C111.929 36.114 111.503 36.216 111.071 36.216ZM111.755 34.056C112.043 34.056 112.301 33.996 112.529 33.876C112.769 33.756 112.997 33.546 113.213 33.246V29.592C112.973 29.376 112.727 29.226 112.475 29.142C112.223 29.058 111.977 29.016 111.737 29.016C111.317 29.016 110.945 29.22 110.621 29.628C110.297 30.024 110.135 30.648 110.135 31.5C110.135 32.388 110.273 33.036 110.549 33.444C110.837 33.852 111.239 34.056 111.755 34.056ZM124.489 36.216C123.517 36.216 122.809 35.898 122.365 35.262C121.933 34.626 121.717 33.744 121.717 32.616V27.072H124.363V32.274C124.363 32.922 124.453 33.366 124.633 33.606C124.813 33.846 125.095 33.966 125.479 33.966C125.815 33.966 126.097 33.888 126.325 33.732C126.553 33.576 126.799 33.324 127.063 32.976V27.072H129.709V36H127.549L127.351 34.758H127.297C126.913 35.214 126.499 35.574 126.055 35.838C125.623 36.09 125.101 36.216 124.489 36.216ZM134.665 36.216C134.077 36.216 133.471 36.102 132.847 35.874C132.235 35.646 131.701 35.346 131.245 34.974L132.433 33.318C132.841 33.63 133.231 33.864 133.603 34.02C133.975 34.176 134.353 34.254 134.737 34.254C135.133 34.254 135.421 34.188 135.601 34.056C135.781 33.924 135.871 33.738 135.871 33.498C135.871 33.354 135.817 33.228 135.709 33.12C135.613 33 135.475 32.892 135.295 32.796C135.127 32.7 134.935 32.616 134.719 32.544C134.503 32.46 134.281 32.37 134.053 32.274C133.777 32.166 133.501 32.04 133.225 31.896C132.949 31.752 132.697 31.578 132.469 31.374C132.241 31.158 132.055 30.912 131.911 30.636C131.767 30.348 131.695 30.018 131.695 29.646C131.695 29.238 131.773 28.86 131.929 28.512C132.097 28.164 132.331 27.87 132.631 27.63C132.931 27.39 133.291 27.204 133.711 27.072C134.131 26.928 134.599 26.856 135.115 26.856C135.799 26.856 136.399 26.976 136.915 27.216C137.431 27.444 137.881 27.702 138.265 27.99L137.077 29.574C136.753 29.334 136.435 29.148 136.123 29.016C135.811 28.884 135.499 28.818 135.187 28.818C134.515 28.818 134.179 29.052 134.179 29.52C134.179 29.664 134.227 29.79 134.323 29.898C134.419 29.994 134.545 30.084 134.701 30.168C134.869 30.252 135.055 30.336 135.259 30.42C135.475 30.492 135.697 30.57 135.925 30.654C136.213 30.762 136.495 30.888 136.771 31.032C137.059 31.164 137.317 31.332 137.545 31.536C137.785 31.74 137.977 31.992 138.121 32.292C138.265 32.58 138.337 32.928 138.337 33.336C138.337 33.744 138.259 34.122 138.103 34.47C137.947 34.818 137.713 35.124 137.401 35.388C137.089 35.64 136.705 35.844 136.249 36C135.793 36.144 135.265 36.216 134.665 36.216ZM144.014 36.216C143.378 36.216 142.784 36.114 142.232 35.91C141.68 35.694 141.2 35.388 140.792 34.992C140.384 34.584 140.066 34.092 139.838 33.516C139.61 32.94 139.496 32.28 139.496 31.536C139.496 30.816 139.616 30.168 139.856 29.592C140.096 29.004 140.408 28.512 140.792 28.116C141.188 27.708 141.638 27.396 142.142 27.18C142.646 26.964 143.168 26.856 143.708 26.856C144.344 26.856 144.896 26.964 145.364 27.18C145.844 27.396 146.24 27.696 146.552 28.08C146.876 28.464 147.116 28.92 147.272 29.448C147.428 29.964 147.506 30.528 147.506 31.14C147.506 31.38 147.494 31.608 147.47 31.824C147.446 32.04 147.422 32.202 147.398 32.31H142.052C142.172 32.958 142.436 33.438 142.844 33.75C143.264 34.05 143.774 34.2 144.374 34.2C145.01 34.2 145.652 34.002 146.3 33.606L147.182 35.208C146.726 35.52 146.216 35.766 145.652 35.946C145.1 36.126 144.554 36.216 144.014 36.216ZM142.034 30.564H145.256C145.256 30.06 145.142 29.652 144.914 29.34C144.686 29.028 144.302 28.872 143.762 28.872C143.342 28.872 142.97 29.01 142.646 29.286C142.334 29.562 142.13 29.988 142.034 30.564ZM156.826 36.216C156.202 36.216 155.62 36.114 155.08 35.91C154.552 35.694 154.09 35.388 153.694 34.992C153.298 34.596 152.986 34.11 152.758 33.534C152.53 32.946 152.416 32.28 152.416 31.536C152.416 30.792 152.542 30.132 152.794 29.556C153.046 28.968 153.382 28.476 153.802 28.08C154.234 27.684 154.732 27.384 155.296 27.18C155.86 26.964 156.448 26.856 157.06 26.856C157.612 26.856 158.098 26.946 158.518 27.126C158.95 27.306 159.334 27.534 159.67 27.81L158.428 29.52C158.008 29.172 157.606 28.998 157.222 28.998C156.574 28.998 156.064 29.226 155.692 29.682C155.32 30.138 155.134 30.756 155.134 31.536C155.134 32.316 155.32 32.934 155.692 33.39C156.076 33.846 156.556 34.074 157.132 34.074C157.42 34.074 157.696 34.014 157.96 33.894C158.236 33.762 158.494 33.606 158.734 33.426L159.778 35.154C159.334 35.538 158.854 35.814 158.338 35.982C157.822 36.138 157.318 36.216 156.826 36.216ZM163.414 36.216C163.006 36.216 162.634 36.144 162.298 36C161.974 35.868 161.698 35.682 161.47 35.442C161.242 35.19 161.062 34.902 160.93 34.578C160.81 34.254 160.75 33.9 160.75 33.516C160.75 32.58 161.146 31.848 161.938 31.32C162.73 30.792 164.008 30.438 165.772 30.258C165.748 29.862 165.628 29.55 165.412 29.322C165.208 29.082 164.86 28.962 164.368 28.962C163.984 28.962 163.6 29.034 163.216 29.178C162.844 29.322 162.442 29.52 162.01 29.772L161.056 28.026C161.632 27.678 162.232 27.396 162.856 27.18C163.492 26.964 164.164 26.856 164.872 26.856C166.024 26.856 166.9 27.186 167.5 27.846C168.112 28.494 168.418 29.508 168.418 30.888V36H166.258L166.078 35.082H166.006C165.622 35.418 165.22 35.694 164.8 35.91C164.38 36.114 163.918 36.216 163.414 36.216ZM164.314 34.164C164.614 34.164 164.872 34.098 165.088 33.966C165.304 33.834 165.532 33.648 165.772 33.408V31.842C164.836 31.974 164.188 32.166 163.828 32.418C163.468 32.67 163.288 32.97 163.288 33.318C163.288 33.606 163.378 33.822 163.558 33.966C163.75 34.098 164.002 34.164 164.314 34.164ZM173.284 36.216C172.696 36.216 172.09 36.102 171.466 35.874C170.854 35.646 170.32 35.346 169.864 34.974L171.052 33.318C171.46 33.63 171.85 33.864 172.222 34.02C172.594 34.176 172.972 34.254 173.356 34.254C173.752 34.254 174.04 34.188 174.22 34.056C174.4 33.924 174.49 33.738 174.49 33.498C174.49 33.354 174.436 33.228 174.328 33.12C174.232 33 174.094 32.892 173.914 32.796C173.746 32.7 173.554 32.616 173.338 32.544C173.122 32.46 172.9 32.37 172.672 32.274C172.396 32.166 172.12 32.04 171.844 31.896C171.568 31.752 171.316 31.578 171.088 31.374C170.86 31.158 170.674 30.912 170.53 30.636C170.386 30.348 170.314 30.018 170.314 29.646C170.314 29.238 170.392 28.86 170.548 28.512C170.716 28.164 170.95 27.87 171.25 27.63C171.55 27.39 171.91 27.204 172.33 27.072C172.75 26.928 173.218 26.856 173.734 26.856C174.418 26.856 175.018 26.976 175.534 27.216C176.05 27.444 176.5 27.702 176.884 27.99L175.696 29.574C175.372 29.334 175.054 29.148 174.742 29.016C174.43 28.884 174.118 28.818 173.806 28.818C173.134 28.818 172.798 29.052 172.798 29.52C172.798 29.664 172.846 29.79 172.942 29.898C173.038 29.994 173.164 30.084 173.32 30.168C173.488 30.252 173.674 30.336 173.878 30.42C174.094 30.492 174.316 30.57 174.544 30.654C174.832 30.762 175.114 30.888 175.39 31.032C175.678 31.164 175.936 31.332 176.164 31.536C176.404 31.74 176.596 31.992 176.74 32.292C176.884 32.58 176.956 32.928 176.956 33.336C176.956 33.744 176.878 34.122 176.722 34.47C176.566 34.818 176.332 35.124 176.02 35.388C175.708 35.64 175.324 35.844 174.868 36C174.412 36.144 173.884 36.216 173.284 36.216ZM182.633 36.216C181.997 36.216 181.403 36.114 180.851 35.91C180.299 35.694 179.819 35.388 179.411 34.992C179.003 34.584 178.685 34.092 178.457 33.516C178.229 32.94 178.115 32.28 178.115 31.536C178.115 30.816 178.235 30.168 178.475 29.592C178.715 29.004 179.027 28.512 179.411 28.116C179.807 27.708 180.257 27.396 180.761 27.18C181.265 26.964 181.787 26.856 182.327 26.856C182.963 26.856 183.515 26.964 183.983 27.18C184.463 27.396 184.859 27.696 185.171 28.08C185.495 28.464 185.735 28.92 185.891 29.448C186.047 29.964 186.125 30.528 186.125 31.14C186.125 31.38 186.113 31.608 186.089 31.824C186.065 32.04 186.041 32.202 186.017 32.31H180.671C180.791 32.958 181.055 33.438 181.463 33.75C181.883 34.05 182.393 34.2 182.993 34.2C183.629 34.2 184.271 34.002 184.919 33.606L185.801 35.208C185.345 35.52 184.835 35.766 184.271 35.946C183.719 36.126 183.173 36.216 182.633 36.216ZM180.653 30.564H183.875C183.875 30.06 183.761 29.652 183.533 29.34C183.305 29.028 182.921 28.872 182.381 28.872C181.961 28.872 181.589 29.01 181.265 29.286C180.953 29.562 180.749 29.988 180.653 30.564ZM190.581 36.216C189.993 36.216 189.387 36.102 188.763 35.874C188.151 35.646 187.617 35.346 187.161 34.974L188.349 33.318C188.757 33.63 189.147 33.864 189.519 34.02C189.891 34.176 190.269 34.254 190.653 34.254C191.049 34.254 191.337 34.188 191.517 34.056C191.697 33.924 191.787 33.738 191.787 33.498C191.787 33.354 191.733 33.228 191.625 33.12C191.529 33 191.391 32.892 191.211 32.796C191.043 32.7 190.851 32.616 190.635 32.544C190.419 32.46 190.197 32.37 189.969 32.274C189.693 32.166 189.417 32.04 189.141 31.896C188.865 31.752 188.613 31.578 188.385 31.374C188.157 31.158 187.971 30.912 187.827 30.636C187.683 30.348 187.611 30.018 187.611 29.646C187.611 29.238 187.689 28.86 187.845 28.512C188.013 28.164 188.247 27.87 188.547 27.63C188.847 27.39 189.207 27.204 189.627 27.072C190.047 26.928 190.515 26.856 191.031 26.856C191.715 26.856 192.315 26.976 192.831 27.216C193.347 27.444 193.797 27.702 194.181 27.99L192.993 29.574C192.669 29.334 192.351 29.148 192.039 29.016C191.727 28.884 191.415 28.818 191.103 28.818C190.431 28.818 190.095 29.052 190.095 29.52C190.095 29.664 190.143 29.79 190.239 29.898C190.335 29.994 190.461 30.084 190.617 30.168C190.785 30.252 190.971 30.336 191.175 30.42C191.391 30.492 191.613 30.57 191.841 30.654C192.129 30.762 192.411 30.888 192.687 31.032C192.975 31.164 193.233 31.332 193.461 31.536C193.701 31.74 193.893 31.992 194.037 32.292C194.181 32.58 194.253 32.928 194.253 33.336C194.253 33.744 194.175 34.122 194.019 34.47C193.863 34.818 193.629 35.124 193.317 35.388C193.005 35.64 192.621 35.844 192.165 36C191.709 36.144 191.181 36.216 190.581 36.216Z" fill="white"/>
<path d="M5 1H267V-1H5V1ZM271 5V57H273V5H271ZM267 61H5V63H267V61ZM1 57V5H-1V57H1ZM5 61C2.79086 61 1 59.2091 1 57H-1C-1 60.3137 1.6863 63 5 63V61ZM271 57C271 59.2091 269.209 61 267 61V63C270.314 63 273 60.3137 273 57H271ZM267 1C269.209 1 271 2.79086 271 5H273C273 1.68629 270.314 -1 267 -1V1ZM5 -1C1.68629 -1 -1 1.68629 -1 5H1C1 2.79086 2.79086 1 5 1V-1Z" fill="white"/>
</svg>
