<svg width="80" height="80" viewBox="0 0 80 80" fill="none" xmlns="http://www.w3.org/2000/svg">
<circle cx="40" cy="40" r="40" fill="white"/>
<path d="M56.0842 20.8108L55.4635 24.4201L55.1942 28.0666L55.0222 31.7205L54.2444 35.3223L53.878 38.9539L53.9004 42.6302L53.4891 46.3585L49.8769 46.7604L46.347 47.0729L42.8021 47.1473L39.2647 47.2738L35.7198 47.2962L32.1899 47.5864L28.6525 47.5343L25.1151 47.8245L21.5777 47.9064L18.0328 47.7204L14.5777 47.6162L14.8993 44.0813L15.2433 40.4572L15.8416 36.8702L16.9559 33.3949L17.3598 29.7707L18.3769 26.2731L18.9004 22.7978L22.4602 22.1429L26.192 21.9494L29.9089 21.6592L33.6258 21.3466L37.3277 20.9001L41.0745 21.0192L44.7914 20.6918L48.5233 20.7438L52.2476 20.6248L55.972 20.2527L56.0842 20.8108Z" fill="#C8E3FA"/>
<path d="M21.5775 49.0003C21.5626 49.0003 21.5476 48.8142 21.5326 48.8142C20.9418 48.7845 20.9344 48.9779 20.3435 48.9482C19.7527 48.9184 19.7527 48.9184 19.1619 48.8886C18.5711 48.8589 18.5711 48.9333 17.9803 48.911C17.4044 48.8886 17.4119 48.8142 16.8361 48.7993C16.2602 48.7845 16.2677 48.7175 15.6918 48.7026C15.116 48.6877 15.1234 48.4645 14.5551 48.4421C14.2784 48.4347 14.0016 48.4942 13.8147 48.2933C13.6277 48.0849 13.5828 47.8096 13.6053 47.5342C13.6502 47.0208 13.5679 47.0133 13.6202 46.5073C13.6651 45.9863 13.8521 46.0087 13.8969 45.4952C13.9418 44.9817 13.867 44.9743 13.9119 44.4682C13.9568 43.9547 14.0091 43.9622 14.0615 43.4487C14.1063 42.9352 14.1288 42.9352 14.1737 42.4292C14.2185 41.9157 14.2784 41.9231 14.3232 41.4096C14.3681 40.8962 14.1138 40.8738 14.1811 40.3604C14.2634 39.7501 14.3382 39.7576 14.4429 39.1548C14.5401 38.5446 14.7121 38.5743 14.8093 37.9641C14.9066 37.3539 14.8991 37.3539 15.0038 36.7436C15.0113 36.699 14.8991 36.632 14.914 36.5874C15.0935 36.0218 15.0487 36.0069 15.2281 35.4413C15.4076 34.8758 15.3628 34.8609 15.5422 34.2953C15.7217 33.7297 15.9012 33.7744 16.0209 33.1939C16.148 32.6134 16.0732 32.5986 16.1405 32.0107C16.2078 31.4228 16.0134 31.4004 16.0807 30.8125C16.148 30.2246 16.3574 30.247 16.4173 29.6591C16.4397 29.6144 16.4472 29.5698 16.4621 29.5102C16.6267 28.9372 16.6715 28.9521 16.8361 28.3791C17.0006 27.8061 16.7089 27.7242 16.8734 27.1512C17.038 26.5782 17.3745 26.6675 17.5017 26.0796C17.6288 25.5214 17.5166 25.4991 17.5989 24.9261C17.6811 24.3605 17.8158 24.3754 17.898 23.8098C17.9803 23.2442 17.8457 23.2219 17.9279 22.6563C17.9878 22.2322 18.3093 22.0089 18.7356 21.9345C19.3264 21.8229 19.3339 21.8601 19.9322 21.7559C20.523 21.6442 20.5155 21.5996 21.1138 21.488C21.7047 21.3763 21.6673 21.168 22.2656 21.0563C22.3104 21.0489 22.3628 21.0266 22.4076 21.0266C23.0284 20.9968 23.0433 21.2275 23.6641 21.1977C24.2848 21.168 24.2773 21.0712 24.9055 21.034C25.5262 21.0043 25.5262 21.034 26.147 20.9894C26.678 20.9522 26.663 20.7884 27.1865 20.7438C27.7175 20.6991 27.725 20.8257 28.2559 20.7884C28.772 20.7364 28.7795 20.7438 29.303 20.7066C29.8339 20.6619 29.8265 20.647 30.3575 20.6024C30.8884 20.5577 30.8959 20.6991 31.4269 20.6545C31.9579 20.6098 31.9579 20.6247 32.4889 20.5801C33.0198 20.5354 32.9899 20.2303 33.5209 20.1782C34.1342 20.1187 34.1342 20.1559 34.7474 20.0815C35.3607 20.0071 35.3906 20.275 36.0038 20.2005C36.6171 20.1261 36.5797 19.8136 37.1929 19.7392C37.2453 19.7317 37.3201 19.7392 37.3724 19.7392C37.9857 19.7615 37.9782 19.8954 38.5914 19.9178C39.2047 19.9401 39.2122 19.7912 39.8254 19.8061C40.4387 19.821 40.4312 20.0666 41.0444 20.0443C41.6577 20.0294 41.6353 19.8136 42.2485 19.754C42.8618 19.7019 42.8692 19.7987 43.475 19.7466C44.0808 19.6945 44.0808 19.6275 44.6865 19.5754C44.7239 19.5754 44.7688 19.8657 44.7987 19.8657C45.4194 19.8731 45.4194 19.8582 46.0402 19.8657C46.6609 19.8731 46.6609 19.8582 47.2816 19.8657C47.9024 19.8731 47.9024 19.7615 48.5306 19.754C49.1438 19.7466 49.1363 19.6201 49.7496 19.5978C50.3628 19.5754 50.3703 19.7019 50.9836 19.6871C51.5968 19.6722 51.5968 19.6498 52.2101 19.6126C52.8233 19.5754 52.8233 19.6201 53.4366 19.5531C54.0498 19.4936 54.0274 19.2703 54.6331 19.2108C55.2464 19.1512 55.2688 19.3596 55.8746 19.2926C56.3831 19.2331 56.8842 19.5457 56.9889 20.0517C57.0413 20.3271 56.8468 20.3717 56.8992 20.647C56.9216 20.7661 57.1983 20.8777 57.1759 20.9968C57.0712 21.5922 57.1235 21.5996 57.0263 22.1949C56.9216 22.7903 56.6449 22.7382 56.5402 23.3335C56.4355 23.9289 56.3906 23.9289 56.3158 24.5242C56.2485 25.1196 56.5252 25.1493 56.4804 25.7447C56.4355 26.3475 56.2635 26.3326 56.2186 26.9354C56.1737 27.5381 56.3532 27.5456 56.3158 28.1484C56.2784 28.7512 56.1588 28.7437 56.1289 29.3465C56.099 29.9493 56.1139 29.9493 56.0915 30.5595C56.0616 31.1623 56.2037 31.1697 56.1737 31.78C56.1737 31.8321 55.9269 31.8618 55.912 31.9139C55.7849 32.5018 55.8222 32.5093 55.6951 33.1046C55.568 33.6925 55.4857 33.6776 55.3586 34.2655C55.2314 34.8534 55.4932 34.9055 55.4034 35.5009C55.3137 36.0813 55.3511 36.0813 55.2913 36.6692C55.2314 37.2571 54.9996 37.2348 54.9398 37.8227C54.8799 38.4106 54.9846 38.418 54.9547 39.0059C54.9248 39.6087 55.0594 39.6013 55.0669 40.2115C55.0744 40.8143 54.7378 40.8143 54.7453 41.4245C54.7528 42.0273 55.0669 42.0273 55.0669 42.6301C55.0669 42.6673 54.9547 42.712 54.9547 42.7566C54.8874 43.3743 54.693 43.3519 54.6257 43.9771C54.5584 44.5947 54.8126 44.6245 54.7378 45.2496C54.6631 45.8747 54.4761 45.8524 54.4088 46.4701C54.3564 46.9389 54.0573 47.244 53.5861 47.2961C52.9878 47.3631 53.0103 47.6087 52.412 47.6756C51.8062 47.7426 51.8062 47.7277 51.2079 47.7947C50.6021 47.8617 50.5872 47.6682 49.9814 47.7277C49.3906 47.7873 49.413 47.9807 48.8222 48.0328C48.2314 48.0849 48.2165 47.9584 47.6256 48.0105C47.0348 48.0626 47.0423 48.2114 46.4515 48.2412C45.8532 48.271 45.8457 48.1742 45.24 48.1817C44.6342 48.1966 44.6417 48.2933 44.0359 48.3082C43.4301 48.3231 43.4376 48.3305 42.8318 48.3454C42.2485 48.3603 42.241 48.271 41.6577 48.2933C41.0744 48.3156 41.0744 48.3975 40.4835 48.4198C39.9002 48.4421 39.8852 48.1891 39.3019 48.1966C38.7111 48.2114 38.7111 48.1445 38.1278 48.1519C37.537 48.1519 37.537 48.1817 36.9461 48.1817C36.3553 48.1817 36.3478 48.1593 35.7645 48.1817C35.1812 48.204 35.1961 48.4793 34.6203 48.524C34.0369 48.5686 34.0369 48.5835 33.4536 48.6356C32.8703 48.6803 32.8628 48.6059 32.2795 48.6579C32.2495 48.6579 32.2047 48.7398 32.1748 48.7324C31.5914 48.7175 31.5914 48.7026 31.0156 48.6952C30.4322 48.6877 30.4397 48.4049 29.8564 48.3975C29.273 48.39 29.2656 48.4421 28.6897 48.457C28.1064 48.4793 28.1139 48.5835 27.5305 48.6356C26.9472 48.6877 26.9397 48.6059 26.3639 48.6505C25.7805 48.7026 25.788 48.7919 25.2047 48.8217C24.6064 48.8514 24.6064 48.7547 24.0006 48.7621C23.4023 48.777 23.4023 48.8961 22.804 48.911C22.2057 48.9259 22.2057 48.9333 21.6 48.9407C21.5925 48.9333 21.585 49.0003 21.5775 49.0003ZM15.7367 46.5817C16.1705 46.991 16.2677 46.7603 16.866 46.7826C17.4643 46.8049 17.4717 46.604 18.07 46.6263C18.6534 46.6487 18.6608 46.6561 19.2442 46.6859C19.835 46.7156 19.835 46.6338 20.4258 46.6635C21.0166 46.6933 21.0017 46.7901 21.5925 46.7975C22.1758 46.8049 22.1758 46.8496 22.7591 46.8347C23.3425 46.8198 23.35 47.0431 23.9333 47.0282C24.5166 47.0133 24.5166 46.8422 25.1 46.8124C25.6758 46.7826 25.6833 46.8049 26.2592 46.7603C26.835 46.7082 26.835 46.6263 27.4109 46.5817C27.9867 46.5296 28.0092 46.7156 28.585 46.671C28.6149 46.671 28.6374 46.5891 28.6748 46.5891C29.2581 46.5966 29.2581 46.6487 29.8339 46.6561C30.4173 46.6635 30.4173 46.6784 31.0006 46.6933C31.5839 46.7008 31.5914 46.7826 32.1748 46.7677C32.7581 46.7454 32.7431 46.4849 33.3265 46.4403C33.9098 46.3956 33.9098 46.4552 34.4931 46.4031C35.0765 46.3584 35.0914 46.5222 35.6673 46.4775C35.6897 46.4775 35.7047 46.4626 35.7271 46.4626C36.3179 46.4552 36.3179 46.3361 36.9087 46.3361C37.4996 46.3361 37.4996 46.284 38.0904 46.2766C38.6812 46.2766 38.6812 46.2319 39.272 46.2245C39.8553 46.2096 39.8628 46.3212 40.4461 46.3063C41.0295 46.284 41.0295 46.2691 41.6128 46.2468C42.1961 46.2245 42.1887 46.031 42.7795 46.0161C43.3703 46.0012 43.3778 46.2096 43.9686 46.2022C44.5594 46.1873 44.5594 46.1873 45.1577 46.1724C45.7485 46.1575 45.756 46.2245 46.3543 46.1947C46.9301 46.1649 46.9077 45.8375 47.4836 45.7854C48.0594 45.7333 48.0893 46.031 48.6652 45.9789C49.241 45.9268 49.2336 45.8524 49.8094 45.8003C50.2731 45.7556 50.288 45.8747 50.7517 45.8226C51.2154 45.7705 51.2004 45.6291 51.6641 45.577C52.1278 45.525 52.3522 45.8598 52.6812 45.525C53.0178 45.1826 52.8084 44.9817 52.8607 44.5054C52.9131 44.0292 52.8607 44.0217 52.9205 43.5454C52.9729 43.0692 52.7859 43.0543 52.8084 42.5706C52.8383 41.9678 52.7859 41.9752 52.7859 41.3724C52.7784 40.7696 53.0178 40.7696 53.0103 40.1669C53.0028 39.5641 52.9131 39.5641 52.9056 38.9613C52.9056 38.9241 52.928 38.8943 52.9355 38.8571C52.9953 38.2543 52.8383 38.232 52.8981 37.6292C52.9579 37.019 53.0851 37.0339 53.1524 36.4311C53.2122 35.8209 53.2197 35.8283 53.2795 35.2181C53.287 35.1809 53.272 35.1437 53.2795 35.1064C53.4066 34.5185 53.5413 34.5483 53.6684 33.9679C53.7955 33.38 53.8105 33.3874 53.9376 32.7995C54.0648 32.2116 53.803 32.1669 53.8778 31.5716C53.9526 30.9837 53.9526 30.9911 53.9825 30.3958C54.0124 29.8005 54.2816 29.8153 54.3041 29.22C54.334 28.6246 54.0049 28.6098 54.0423 28.0144C54.0797 27.4042 54.0947 27.4042 54.1395 26.7865C54.1844 26.1763 54.319 26.1837 54.3639 25.5735C54.4088 24.9633 54.2592 24.9484 54.3041 24.3382C54.3041 24.3084 54.5135 24.2935 54.5135 24.2563C54.5957 23.7726 54.4163 23.7428 54.4985 23.2666C54.5808 22.7828 54.678 22.8052 54.7678 22.3215C54.85 21.8377 55.3137 21.7559 54.9173 21.4656C54.3863 21.0787 54.319 21.2573 53.6609 21.3243C53.0028 21.3912 53.0103 21.421 52.3522 21.4731C51.881 21.5103 51.8885 21.5103 51.4098 21.5252C50.9387 21.5401 50.9387 21.674 50.4675 21.6889C49.9889 21.7038 49.9964 21.8229 49.5177 21.8377C49.0391 21.8526 49.0391 21.741 48.5605 21.741C47.9398 21.7484 47.9398 21.7708 47.319 21.7559C46.6983 21.7484 46.6983 21.6815 46.0776 21.674C45.4568 21.6666 45.4643 21.8601 44.8436 21.8824C44.2303 21.9047 44.2229 21.7261 43.6171 21.7856C43.0038 21.8377 43.0113 21.9047 42.3981 21.9568C41.7848 22.0089 41.7699 21.808 41.1566 21.8601C41.1192 21.8675 41.0893 22.1428 41.0444 22.1428C40.4312 22.1205 40.4312 22.1801 39.8254 22.1577C39.2122 22.1354 39.2271 21.8601 38.6139 21.8377C38.0006 21.8154 37.9931 21.7559 37.3799 21.7782C36.7592 21.7931 36.7816 22.0759 36.1758 22.1503C35.5701 22.2247 35.5476 22.0535 34.9419 22.128C34.3361 22.2024 34.3585 22.3959 33.7528 22.4554C33.2218 22.5075 33.2068 22.3735 32.6758 22.4108C32.1448 22.4554 32.1448 22.4703 31.6139 22.5149C31.0829 22.5596 31.0904 22.6935 30.5594 22.7382C30.0284 22.7828 30.006 22.5373 29.475 22.5819C28.944 22.6266 28.944 22.6638 28.413 22.7084C27.8745 22.7531 27.8745 22.6712 27.3361 22.7159C26.7976 22.7605 26.82 23.0656 26.2891 23.1028C25.6758 23.14 25.6758 23.14 25.0626 23.1773C24.4493 23.207 24.4344 22.9763 23.8211 23.0135C23.2079 23.0507 23.2153 23.1475 22.6021 23.2145C22.1309 23.2666 22.1609 23.4005 21.6972 23.4824C21.2335 23.5642 21.1737 23.2442 20.7025 23.3261C20.2239 23.4154 20.2314 23.4228 19.9023 23.7652C19.5732 24.1 19.7677 24.1224 19.7004 24.5838C19.6331 25.0451 19.4386 25.0154 19.3713 25.4768C19.304 25.9382 19.5583 25.9754 19.491 26.4368C19.4835 26.4814 19.2891 26.4889 19.2741 26.5335C19.1096 27.0991 19.1096 27.1065 18.945 27.6721C18.7805 28.2451 19.0123 28.3121 18.8478 28.8777C18.6833 29.4507 18.6235 29.4209 18.5113 30.0014C18.3916 30.5818 18.242 30.5521 18.1747 31.14C18.1074 31.7279 18.3093 31.7502 18.242 32.3381C18.1747 32.926 18.0476 32.9111 17.9803 33.5065C17.9728 33.5734 18.0775 33.6776 18.0551 33.7446C17.8756 34.3102 17.7933 34.2879 17.6138 34.8534C17.4343 35.419 17.5241 35.4562 17.3446 36.0218C17.1651 36.5874 17.1352 36.5725 17.0006 37.1529C16.8585 37.726 16.8061 37.7111 16.7089 38.2915C16.6117 38.8794 16.694 38.8943 16.5967 39.4748C16.4995 40.0627 16.2153 40.018 16.1405 40.6059C16.0732 41.1045 16.0433 41.1045 15.991 41.6106C15.9461 42.1092 15.9685 42.1166 15.9237 42.6152C15.8788 43.1138 15.8713 43.1138 15.8264 43.6199C15.7816 44.1185 16.0284 44.1482 15.9835 44.6468C15.9386 45.1529 16.0433 45.1975 15.8937 45.6812C15.7517 46.1724 15.3702 46.2319 15.7367 46.5817Z" fill="#023866"/>
<path d="M59.7635 25.3801L59.1801 28.9969L58.9333 32.6433L58.6716 36.2898L58.4173 39.9363L57.8639 43.5604L57.4899 47.192L57.0637 50.6822L53.6833 51.0171L50.1833 51.5901L46.6235 51.5008L43.1085 51.9622L39.5636 51.8729L36.0262 52.0813L32.4963 52.431L28.9589 52.5948L25.414 52.5203L21.8766 52.3566L18.3168 52.2896L18.8178 48.6729L19.117 45.0488L19.8125 41.4842L20.4631 37.9121L21.2858 34.3773L22.0636 30.835L22.6693 27.315L26.3414 27.0843L30.0134 26.3773L33.7452 26.2062L37.4472 25.7374L41.194 25.8341L44.9034 25.5067L48.6277 25.2685L52.3521 25.0974L56.0765 24.8071L59.8083 24.9411L59.7635 25.3801Z" fill="#C8E3FA"/>
<path d="M29.004 53.7331C28.4057 53.7406 28.4057 53.4206 27.7999 53.4057C27.1942 53.3908 27.1942 53.3983 26.5959 53.3908C25.9901 53.3759 25.9976 53.3983 25.3918 53.3759C24.801 53.3536 24.786 53.6513 24.1952 53.6215C23.6044 53.5918 23.5969 53.6215 23.0061 53.5918C22.4153 53.562 22.4228 53.2643 21.832 53.242C21.2412 53.2197 21.2337 53.5248 20.6504 53.5173C20.0595 53.5025 20.067 53.3387 19.4762 53.3239C18.8854 53.309 18.8854 53.2048 18.3021 53.1973C18.0179 53.1899 17.7711 53.1304 17.5841 52.9146C17.3971 52.6987 17.442 52.4532 17.4794 52.1704C17.5617 51.5676 17.4495 51.5527 17.5318 50.9499C17.614 50.3471 17.5916 50.3471 17.6738 49.7444C17.7561 49.1416 17.5991 49.1267 17.6664 48.5165C17.7337 47.9211 17.8758 47.936 17.9281 47.3481C17.9805 46.7528 17.9057 46.7453 17.9506 46.15C18.0029 45.5546 17.9506 45.5472 17.9954 44.9518C17.9954 44.9146 18.2347 44.9146 18.2422 44.8774C18.3544 44.2821 18.1525 44.2449 18.2721 43.6495C18.3843 43.0542 18.3394 43.0467 18.4591 42.4514C18.5713 41.8561 18.7732 41.8933 18.8854 41.2979C18.9976 40.7026 18.8405 40.6803 18.9452 40.0849C19.0574 39.4896 19.2743 39.5342 19.3865 38.9389C19.4986 38.3435 19.3491 38.3212 19.4687 37.7259C19.5959 37.1231 19.7305 37.1603 19.8726 36.5575C20.0147 35.9622 19.91 35.9398 20.0521 35.337C20.1942 34.7417 20.3437 34.7715 20.4858 34.1761C20.6204 33.5882 20.4783 33.5585 20.613 32.9706C20.7401 32.3827 20.77 32.3901 20.8971 31.7948C21.0243 31.2069 20.8672 31.1771 20.9869 30.5817C21.0991 30.0087 21.316 30.0459 21.4132 29.4655C21.5104 28.885 21.4356 28.8701 21.5328 28.2971C21.6301 27.7167 21.4281 27.6869 21.5254 27.1064C21.6076 26.645 22.1536 26.2729 22.6172 26.2432C23.2155 26.206 23.2155 26.1911 23.8138 26.1539C24.4121 26.1167 24.4196 26.1464 25.0179 26.1092C25.6162 26.072 25.6237 26.1241 26.2219 26.0497C26.8277 25.9753 26.8053 25.8636 27.411 25.752C28.0168 25.633 28.0243 25.6776 28.6226 25.566C29.2284 25.4469 29.2209 25.4097 29.8192 25.2906C29.864 25.2832 29.9388 25.432 29.9837 25.432C30.597 25.4023 30.597 25.4097 31.2102 25.3874C31.8235 25.3576 31.8235 25.2609 32.4367 25.2311C33.05 25.2013 33.0649 25.4097 33.6782 25.3576C34.2914 25.3055 34.2914 25.2757 34.9047 25.2013C35.5179 25.1269 35.5029 25.0302 36.1162 24.9558C36.7294 24.8813 36.722 24.8441 37.3352 24.7697C37.3876 24.7623 37.4324 24.6432 37.4848 24.6432C38.098 24.6581 38.098 24.7399 38.7113 24.7548C39.3245 24.7697 39.332 24.5985 39.9453 24.6134C40.5585 24.6283 40.551 24.6655 41.1643 24.6506C41.7775 24.6283 41.785 24.8739 42.3983 24.8144C43.0115 24.7623 43.004 24.7176 43.6173 24.6655C44.2305 24.6134 44.2305 24.6655 44.8438 24.6209C45.4645 24.5762 45.4645 24.6134 46.0927 24.5762C46.7209 24.539 46.7134 24.4199 47.3342 24.3827C47.9624 24.3455 47.9624 24.3604 48.5831 24.3232C49.2038 24.286 49.2113 24.353 49.832 24.3232C50.4528 24.2934 50.4528 24.3009 51.081 24.2711C51.7092 24.2413 51.6867 23.9809 52.3149 23.9362C52.9282 23.899 52.9282 23.9065 53.5414 23.8618C54.1547 23.8097 54.1697 23.9809 54.7829 23.9362C55.3962 23.8841 55.3812 23.6906 56.0019 23.646C56.0393 23.646 56.0917 23.7799 56.1291 23.7799C56.7498 23.8023 56.7573 23.6758 57.378 23.6981C57.9987 23.7204 57.9987 23.8097 58.6194 23.8395C59.2402 23.8618 59.2477 23.7576 59.8684 23.7799C60.1451 23.7874 60.3769 24.0925 60.5564 24.3009C60.7359 24.5092 61.0051 24.7697 60.9752 25.0451C60.9528 25.2609 60.893 25.2609 60.878 25.4767C60.878 25.499 60.6237 25.4916 60.6237 25.5139C60.5265 26.1092 60.5489 26.1092 60.4592 26.7046C60.362 27.2999 60.4143 27.3074 60.3171 27.9027C60.2199 28.498 60.1825 28.498 60.1152 29.0934C60.0479 29.6366 60.0853 29.6441 60.0479 30.1873C60.0105 30.7306 60.0254 30.7306 59.988 31.2738C59.9506 31.8171 59.988 31.8245 59.9506 32.3678C59.9133 32.911 59.8908 32.911 59.8534 33.4543C59.816 33.9975 59.9806 34.0124 59.9432 34.5557C59.9058 35.0989 59.7487 35.0915 59.7113 35.6347C59.6739 36.178 59.7861 36.1854 59.7487 36.7287C59.7113 37.2719 59.7263 37.2794 59.6889 37.8226C59.6515 38.3659 59.4795 38.3584 59.4421 38.9017C59.4047 39.4449 59.6216 39.4598 59.5767 40.0105C59.5767 40.0403 59.6216 40.0849 59.6141 40.1072C59.5244 40.71 59.2626 40.6728 59.1729 41.2756C59.0831 41.8784 59.3224 41.9156 59.2327 42.5184C59.143 43.1212 58.956 43.0914 58.8812 43.7016C58.8064 44.297 58.7765 44.297 58.7092 44.8923C58.6494 45.4876 58.8363 45.51 58.7765 46.1128C58.7167 46.7081 58.44 46.6858 58.3727 47.2811C58.3053 47.869 58.612 47.8988 58.5447 48.4867C58.4699 49.0746 58.1333 49.0299 58.0586 49.6178C57.9838 50.2057 58.1558 50.2206 58.081 50.8085C58.0212 51.2774 57.6547 51.6271 57.191 51.6718C56.6301 51.7239 56.6451 51.9099 56.0842 51.962C55.5233 52.0141 55.5158 51.9843 54.9549 52.0364C54.394 52.0885 54.3716 51.9025 53.8107 51.9769C53.2348 52.0513 53.2199 51.9769 52.6515 52.0662C52.0756 52.1629 52.128 52.4457 51.5521 52.5425C50.9763 52.6392 50.9239 52.3118 50.3481 52.4085C50.2882 52.416 50.2508 52.602 50.191 52.602C49.6152 52.5871 49.6152 52.4308 49.0393 52.416C48.456 52.4011 48.456 52.5871 47.8726 52.5722C47.2893 52.5573 47.2893 52.4234 46.7134 52.4532C46.1376 52.4829 46.1451 52.5722 45.5692 52.6466C44.9934 52.7211 44.9784 52.5722 44.4025 52.6466C43.8267 52.7211 43.8566 52.922 43.2807 52.9964C43.2284 53.0039 43.1686 53.1006 43.1162 53.1006C42.5329 53.0857 42.5329 53.0708 41.9495 53.0634C41.3662 53.0485 41.3737 52.7806 40.7904 52.7657C40.207 52.7508 40.1995 52.7062 39.6162 52.7136C39.0329 52.7211 39.0254 52.7434 38.4495 52.7806C37.8662 52.8178 37.8812 53.0857 37.2978 53.1229C36.7145 53.1601 36.707 52.9964 36.1237 53.0485C35.5403 53.0932 35.5403 53.1229 34.9645 53.1825C34.3811 53.242 34.3811 53.2271 33.7978 53.2866C33.2145 53.3462 33.2294 53.4801 32.6461 53.5248C32.0478 53.5694 32.0403 53.3685 31.442 53.3983C30.8438 53.428 30.8213 53.2941 30.223 53.3759C29.5724 53.4429 29.6098 53.7257 29.004 53.7331ZM19.5734 51.2253C19.9548 51.7015 20.067 51.4857 20.6728 51.5006C21.2786 51.5155 21.2786 51.4932 21.8843 51.5155C22.4751 51.5378 22.4751 51.5304 23.0734 51.5601C23.6717 51.5899 23.6792 51.2848 24.2775 51.3146C24.8758 51.3443 24.8683 51.322 25.4666 51.3443C26.0499 51.3667 26.0425 51.6494 26.6258 51.6643C27.2091 51.6792 27.2166 51.3815 27.8074 51.389C28.3908 51.4039 28.3908 51.5899 28.9741 51.5825C29.5499 51.575 29.5574 51.6643 30.1333 51.6346C30.7091 51.6048 30.7091 51.5527 31.285 51.5229C31.8608 51.4932 31.8758 51.6346 32.4517 51.5899C33.035 51.5453 33.02 51.4188 33.6034 51.3592C34.1867 51.2997 34.1792 51.2774 34.7626 51.2178C35.3459 51.1583 35.3235 50.9722 35.9068 50.9276C36.4976 50.8829 36.5126 51.0541 37.1109 51.0169C37.7091 50.9797 37.7017 50.9053 38.3 50.8681C38.8983 50.8309 38.8908 50.7788 39.4891 50.7415C39.519 50.7415 39.5489 50.9722 39.5788 50.9722C40.1547 50.9871 40.1621 50.7788 40.738 50.7936C41.3139 50.8085 41.3213 50.7639 41.8972 50.7713C42.473 50.7862 42.473 51.0243 43.0564 50.9946C43.6322 50.9648 43.6098 50.7639 44.1857 50.6895C44.7615 50.615 44.7914 50.8383 45.3598 50.7639C45.9282 50.6895 45.9132 50.5555 46.4891 50.4811C46.5414 50.4736 46.5938 50.6002 46.6461 50.6002C47.222 50.615 47.222 50.5109 47.7978 50.5257C48.3737 50.5406 48.3737 50.6969 48.9496 50.7118C49.5254 50.7267 49.5329 50.6448 50.1087 50.6076C50.6846 50.5704 50.6846 50.5406 51.253 50.4439C51.8214 50.3471 51.7914 50.176 52.3598 50.0867C52.9282 49.9899 52.9581 50.2057 53.534 50.1313C54.1921 50.0495 54.1846 49.9899 54.8427 49.923C55.5009 49.856 55.5233 50.0048 56.0543 49.6178C56.4207 49.3499 56.144 49.2978 56.1964 48.8513C56.2487 48.4048 56.2412 48.3974 56.2936 47.9509C56.3459 47.5044 56.3833 47.5044 56.4357 47.0579C56.503 46.4551 56.5105 46.4551 56.5778 45.8523C56.6376 45.2495 56.5703 45.2421 56.6301 44.6393C56.69 44.0365 56.7199 44.0365 56.7947 43.4337C56.8694 42.8309 56.847 42.8235 56.9368 42.2207C57.0265 41.6179 57.191 41.6402 57.2808 41.0375C57.3705 40.4347 57.4004 40.4347 57.4752 39.8244C57.535 39.2812 57.4154 39.2738 57.4528 38.7305C57.4902 38.1873 57.6771 38.2021 57.7145 37.6589C57.7519 37.1156 57.7444 37.1156 57.7893 36.5649C57.8267 36.0217 57.7295 36.0142 57.7669 35.471C57.8043 34.9277 57.7744 34.9203 57.8118 34.3771C57.8491 33.8338 57.7295 33.8264 57.7669 33.2757C57.8043 32.7324 57.8865 32.7399 57.9239 32.1892C57.9613 31.6459 57.7893 31.631 57.8267 31.0878C57.8641 30.5371 57.8641 30.5445 57.909 29.9938C57.9464 29.4432 58.2231 29.4655 58.2605 28.9222C58.2605 28.8925 58.2231 28.8627 58.2306 28.8329C58.3128 28.3418 58.3727 28.3566 58.4474 27.8655C58.5297 27.3743 58.5596 27.3818 58.6344 26.8906C58.7167 26.3995 59.0308 26.206 58.6643 25.8711C58.1932 25.4395 58.0062 25.819 57.363 25.7967C56.7199 25.7743 56.7199 25.6776 56.0767 25.685C55.4859 25.7074 55.4784 25.7371 54.8652 25.7892C54.2519 25.8339 54.2744 26.1092 53.6611 26.1613C53.0479 26.2134 53.0479 26.1985 52.4346 26.2357C51.8064 26.2729 51.7989 26.0943 51.1707 26.1241C50.5425 26.1539 50.55 26.3474 49.9293 26.3771C49.3011 26.4069 49.2936 26.2655 48.6728 26.2953C48.0521 26.3325 48.0671 26.459 47.4463 26.4962C46.8256 26.5334 46.8256 26.4441 46.2049 26.4813C45.5842 26.5185 45.5916 26.6153 44.9784 26.6674C44.3651 26.712 44.3502 26.526 43.7369 26.5781C43.1237 26.6302 43.1386 26.8088 42.5254 26.8683C41.9121 26.9204 41.9047 26.8608 41.2914 26.9129C41.254 26.9204 41.2092 26.6748 41.1718 26.6674C40.5585 26.6525 40.5585 26.6748 39.9527 26.6599C39.3395 26.645 39.3395 26.6971 38.7262 26.6822C38.113 26.6674 38.1055 26.6078 37.4997 26.6376C36.894 26.6674 36.8865 26.7195 36.2882 26.7939C35.6824 26.8683 35.6824 26.8832 35.0767 26.965C34.4709 27.0395 34.4784 27.0767 33.8726 27.1511C33.8427 27.1511 33.8203 27.1362 33.7903 27.1362C33.1846 27.166 33.192 27.3297 32.5788 27.352C31.973 27.3818 31.9655 27.2255 31.3523 27.2553C30.7465 27.285 30.7465 27.352 30.1408 27.419C29.535 27.4934 29.5499 27.5529 28.9442 27.6646C28.3459 27.7836 28.3085 27.6125 27.7102 27.7315C27.1119 27.8506 27.1493 28.059 26.551 28.1706C26.5061 28.178 26.4538 28.2376 26.4089 28.2376C25.9303 28.2673 25.9153 28.0069 25.4367 28.0367C24.9581 28.0664 24.973 28.312 24.4944 28.3418C24.0157 28.3715 23.8736 27.9176 23.5147 28.2376C23.1632 28.5427 23.3875 28.6915 23.3053 29.1529C23.223 29.6069 23.4175 29.6441 23.3352 30.098C23.2529 30.552 22.9912 30.5073 22.9014 30.9613C22.7818 31.5641 23.0809 31.6236 22.9463 32.2189C22.8117 32.8143 22.4826 32.7473 22.348 33.3426C22.2134 33.938 22.3854 33.9752 22.2508 34.578C22.1162 35.1733 22.1087 35.1659 21.9741 35.7612C21.8395 36.3566 22.0115 36.3938 21.8768 36.9891C21.7422 37.5845 21.6899 37.5696 21.5702 38.1649C21.4506 38.7454 21.2935 38.7156 21.1888 39.3035C21.0841 39.8914 20.9869 39.8765 20.8747 40.4644C20.77 41.0523 21.0617 41.1044 20.9495 41.6923C20.8373 42.2802 20.5083 42.2207 20.3961 42.8012C20.2839 43.3891 20.4634 43.4263 20.3437 44.0142C20.2315 44.6021 20.0446 44.5723 19.9623 45.1677C19.8801 45.7556 20.0969 45.7853 20.0446 46.3807C19.9922 46.976 19.9025 46.9686 19.8501 47.5639C19.7978 48.1592 19.8651 48.1667 19.7978 48.762C19.723 49.402 19.6781 49.3797 19.4762 49.9899C19.2967 50.5927 19.1696 50.7192 19.5734 51.2253Z" fill="#023866"/>
<path fill-rule="evenodd" clip-rule="evenodd" d="M63.2562 33.6033L63.7573 29.9792L63.6526 29.4434L62.9146 29.5068L59.9132 29.4434L56.1889 29.5699L52.472 30.0238L52.2314 30.0407L48.7476 30.0685L46.2888 30.1618L45.0083 30.0982L43.1487 30.2434L41.2839 30.2768L37.5671 30.5968L33.8576 30.9466L30.1408 31.2889L28.3465 31.6483L26.4164 31.8173L26.6076 32.0176L26.0948 35.4489L25.0029 38.9391L24.4719 42.5335L23.8587 46.113L22.9463 49.633L22.5948 53.2571L22.0414 56.978L25.7209 56.9334H29.2583L32.7957 56.8664L36.3331 56.7027L39.878 56.9631L43.4079 56.6506L46.9528 56.6357L50.4677 56.0701L54.0051 55.951L57.535 55.7203L61.1098 55.4748L61.5959 51.806L61.9026 48.1669L62.3064 44.5279L62.4261 40.8665L62.9047 37.2424L63.2562 33.6033Z" fill="white"/>
<path fill-rule="evenodd" clip-rule="evenodd" d="M42.8559 47.5519C42.983 47.6199 43.087 47.6756 43.2358 47.6756C43.303 47.6756 43.3815 47.696 43.4585 47.716C43.5788 47.7473 43.6955 47.7776 43.7593 47.7277C43.9888 47.5978 44.0927 47.5304 44.2038 47.4582C44.3028 47.394 44.4076 47.326 44.6119 47.2068C44.8306 47.083 44.9181 46.9875 45.0067 46.8909C45.0939 46.7959 45.1821 46.6997 45.3972 46.5742C45.6197 46.4483 45.7143 46.3634 45.8112 46.2765C45.9032 46.1939 45.9972 46.1096 46.2048 45.9863C46.4241 45.8584 46.5478 45.8199 46.6717 45.7813L46.6717 45.7813C46.7928 45.7436 46.914 45.7059 47.1247 45.5845C47.1746 45.5547 47.2111 45.5117 47.2477 45.4687C47.266 45.4472 47.2843 45.4257 47.3042 45.4059C47.5247 45.1827 47.635 45.073 47.7453 44.9633L47.7455 44.9631L47.7456 44.9629C47.8559 44.8532 47.9662 44.7434 48.1867 44.5203C48.4073 44.297 48.5083 44.178 48.6092 44.0589C48.7102 43.9398 48.8112 43.8208 49.0318 43.5975C49.2801 43.3462 49.4052 43.2529 49.5499 43.145C49.6622 43.0612 49.7863 42.9686 49.989 42.7864C50.1903 42.6022 50.2958 42.4882 50.3904 42.3859C50.5138 42.2525 50.6188 42.1389 50.894 41.9157C50.9223 41.8927 50.9493 41.8715 50.9752 41.8518C51.0053 41.9237 51.0439 42.0052 51.0958 42.1018C51.2478 42.3849 51.3429 42.5063 51.4425 42.6335C51.5341 42.7504 51.6295 42.8721 51.7763 43.1288C51.9208 43.3794 51.9423 43.5369 51.9636 43.6927C51.9853 43.8514 52.0068 44.0083 52.1578 44.2599C52.2977 44.4932 52.4082 44.5961 52.513 44.6938C52.6321 44.8048 52.7439 44.909 52.8832 45.1901C53.0783 45.584 53.1197 45.6925 53.2179 45.9504C53.2515 46.0385 53.2917 46.1439 53.3469 46.2841C53.4553 46.5594 53.5039 46.6989 53.5525 46.8385C53.6011 46.978 53.6497 47.1175 53.7582 47.3929C53.772 47.4239 53.765 47.4693 53.758 47.515C53.7498 47.568 53.7416 47.6214 53.7657 47.6534C53.9423 47.9076 54.0792 48.0003 54.2173 48.0938C54.3541 48.1863 54.492 48.2797 54.6706 48.5315C54.8226 48.7458 54.9076 48.8707 54.9828 48.9813C55.0853 49.1319 55.1698 49.2561 55.3811 49.5436C55.55 49.7775 55.5873 49.9306 55.624 50.0814C55.662 50.2377 55.6995 50.3915 55.8821 50.6301C56.0545 50.8552 56.1993 50.9345 56.338 51.0104C56.4882 51.0927 56.6312 51.171 56.7945 51.4263C56.9562 51.683 56.9514 51.8529 56.9465 52.0294C56.9418 52.1958 56.937 52.3681 57.0712 52.6245C57.2127 52.8946 57.2916 53.0208 57.372 53.1493C57.4487 53.272 57.5268 53.3969 57.662 53.6514C57.6817 53.6867 57.7409 53.7013 57.8001 53.716C57.8533 53.7292 57.9065 53.7423 57.9313 53.7705C58.1379 54.0066 58.2506 54.1121 58.3655 54.2198C58.4662 54.3142 58.5687 54.4102 58.7379 54.5974C58.7115 54.6032 58.6861 54.609 58.6606 54.6149C58.5316 54.6447 58.4026 54.6744 58.1409 54.6931C57.8685 54.7085 57.7399 54.7281 57.6054 54.7485C57.4814 54.7673 57.3525 54.7868 57.1013 54.8047C56.8433 54.8233 56.7143 54.8512 56.5853 54.8791C56.4563 54.907 56.3273 54.9349 56.0693 54.9535L56.0639 54.9539L56.0612 54.9541L56.058 54.9543C55.5532 54.9907 55.5494 54.991 55.0298 55.0279C54.7623 55.0469 54.6295 55.0116 54.4938 54.9754C54.3639 54.9407 54.2313 54.9054 53.9753 54.9163C53.6829 54.931 53.537 54.9822 53.3927 55.0329C53.2453 55.0846 53.0996 55.1357 52.8011 55.147C52.5057 55.1582 52.3561 55.121 52.2066 55.0837C52.057 55.0465 51.9074 55.0093 51.612 55.0205C51.2979 55.0285 51.1529 55.0387 50.9938 55.0498L50.9937 55.0499H50.9937C50.8573 55.0594 50.7105 55.0697 50.4379 55.08C50.4154 55.0837 50.3967 55.0949 50.378 55.1061C50.3593 55.1172 50.3406 55.1284 50.3182 55.1321C50.0298 55.1768 49.8764 55.1469 49.7238 55.1171C49.5717 55.0874 49.4203 55.0578 49.1366 55.1024C48.8551 55.1466 48.7149 55.1798 48.5751 55.213C48.4326 55.2468 48.2905 55.2805 47.9998 55.3256C47.8757 55.3467 47.779 55.364 47.6977 55.3784L47.6975 55.3785C47.4068 55.4303 47.313 55.447 46.8631 55.4819C46.5963 55.5026 46.4547 55.5456 46.3223 55.5859C46.169 55.6325 46.0279 55.6754 45.7188 55.6754C45.4262 55.6754 45.2804 55.6866 45.135 55.6978C44.9906 55.7089 44.8467 55.72 44.5597 55.72C44.2837 55.7236 44.14 55.7357 44.0018 55.7473H44.0017H44.0017C43.8515 55.76 43.7078 55.7721 43.4079 55.7721C43.3999 55.7741 43.393 55.7761 43.3865 55.7779C43.3689 55.783 43.3551 55.787 43.3332 55.787C43.0452 55.813 42.8957 55.7572 42.7461 55.7014C42.5965 55.6456 42.4469 55.5898 42.159 55.6158C41.8711 55.6419 41.7309 55.6884 41.5906 55.7349C41.4504 55.7814 41.3102 55.8279 41.0222 55.854C40.7648 55.8773 40.6225 55.911 40.4923 55.9418C40.3313 55.9799 40.189 56.0136 39.8705 56.0177C39.5392 56.0219 39.3961 55.9925 39.2287 55.9582C39.1014 55.932 38.9601 55.903 38.7113 55.8837C38.4183 55.8613 38.2744 55.8257 38.1307 55.7902C37.9883 55.755 37.8462 55.7199 37.5596 55.6977C37.2717 55.6754 37.1296 55.6419 36.9875 55.6084C36.8454 55.5749 36.7033 55.5414 36.4154 55.5191C36.3919 55.5191 36.3644 55.5313 36.3381 55.5429C36.3141 55.5536 36.2912 55.5637 36.2733 55.5637C35.9817 55.5786 35.8358 55.5954 35.69 55.6121L35.69 55.6121C35.5441 55.6289 35.3983 55.6456 35.1066 55.6605C34.815 55.6754 34.6673 55.6605 34.5196 55.6456C34.3719 55.6307 34.2242 55.6158 33.9325 55.6307C33.659 55.6447 33.5138 55.6586 33.3765 55.6718L33.3764 55.6718C33.2209 55.6868 33.0756 55.7007 32.7658 55.7126C32.473 55.7236 32.3271 55.8042 32.1835 55.8835C32.0373 55.9642 31.8934 56.0437 31.5992 56.0475C31.2715 56.0558 31.1255 56.0548 30.9571 56.0536H30.9571H30.9571H30.957H30.957C30.8256 56.0527 30.6806 56.0516 30.425 56.0549C30.1333 56.0586 29.9856 55.9991 29.8379 55.9396C29.6902 55.88 29.5425 55.8205 29.2509 55.8242C28.9555 55.8242 28.8077 55.8112 28.66 55.7982C28.5123 55.7851 28.3646 55.7721 28.0692 55.7721C27.7738 55.7721 27.6261 55.8093 27.4784 55.8465C27.3307 55.8837 27.183 55.9209 26.8876 55.9209C26.5891 55.9209 26.4414 55.9665 26.2922 56.0126C26.146 56.0577 25.9983 56.1033 25.706 56.107C25.4071 56.1106 25.2521 56.0296 25.1016 55.9455C25.1436 55.8907 25.1818 55.846 25.2198 55.8015C25.3107 55.695 25.4009 55.5893 25.541 55.3482C25.6884 55.0946 25.7764 54.9887 25.8705 54.8754C25.9531 54.776 26.0404 54.6709 26.1767 54.4552C26.3153 54.2374 26.3508 54.1046 26.3854 53.9747C26.4218 53.8383 26.4573 53.7052 26.6105 53.4803C26.7429 53.286 26.7947 53.1587 26.8418 53.043C26.9012 52.8973 26.953 52.7699 27.1489 52.5501C27.3397 52.3279 27.4732 52.2702 27.62 52.2067C27.7436 52.1533 27.8767 52.0957 28.0613 51.9324C28.2633 51.7538 28.3437 51.6403 28.4241 51.5268C28.5044 51.4134 28.5848 51.2999 28.7868 51.1213C28.8175 51.0941 28.8777 51.0902 28.9391 51.0862C29.0124 51.0814 29.0873 51.0765 29.1158 51.032C29.2617 50.8013 29.2897 50.658 29.3177 50.5148C29.3458 50.3715 29.3738 50.2282 29.5197 49.9976C29.6721 49.7565 29.7918 49.6739 29.9173 49.5873C30.0319 49.5082 30.1514 49.4258 30.3049 49.2162C30.4483 49.0238 30.5143 48.9068 30.5747 48.8C30.6497 48.6671 30.7159 48.55 30.9107 48.3231C31.0803 48.1257 31.175 48.0287 31.2671 47.9344C31.3659 47.8332 31.4617 47.7351 31.6436 47.5194C31.6549 47.5082 31.6888 47.5101 31.7216 47.512C31.7542 47.5139 31.7857 47.5157 31.7932 47.5046C31.9502 47.2813 32.0007 47.1492 32.0512 47.0171C32.1017 46.885 32.1522 46.7529 32.3092 46.5297C32.4629 46.3112 32.502 46.1712 32.5404 46.0336C32.5805 45.8901 32.6198 45.7493 32.7878 45.525C32.9578 45.2995 33.0973 45.2296 33.238 45.1592C33.3759 45.0901 33.515 45.0205 33.6853 44.8032C33.8573 44.5836 33.9059 44.4441 33.9545 44.3046C34.0031 44.165 34.0517 44.0255 34.2237 43.806C34.2408 43.7856 34.2642 43.7745 34.2874 43.7635C34.3149 43.7504 34.3421 43.7375 34.3584 43.7092C34.493 43.4599 34.5378 43.3241 34.5827 43.1883C34.6276 43.0525 34.6725 42.9167 34.8071 42.6674C34.9401 42.421 35.033 42.3109 35.1253 42.2024C35.2941 42.3744 35.3733 42.4835 35.4535 42.5941C35.5423 42.7165 35.6324 42.8408 35.8469 43.0543C35.862 43.0693 35.8542 43.1109 35.8467 43.1513C35.8393 43.1909 35.8321 43.2293 35.8469 43.2403C36.0862 43.4301 36.2115 43.5194 36.3368 43.6087L36.3368 43.6087C36.462 43.698 36.5873 43.7873 36.8266 43.977C37.0659 44.1668 37.2099 44.2301 37.3539 44.2933C37.4978 44.3566 37.6418 44.4198 37.8811 44.6096C38.1204 44.7994 38.2494 44.8831 38.3784 44.9668L38.3784 44.9668C38.5075 45.0505 38.6365 45.1342 38.8758 45.324C38.8976 45.3421 38.9089 45.3691 38.9198 45.3955C38.9313 45.4232 38.9425 45.4501 38.9655 45.4654C39.2048 45.5994 39.2964 45.7128 39.3881 45.8263C39.4797 45.9398 39.5713 46.0533 39.8106 46.1873C40.0463 46.3213 40.1959 46.3287 40.3464 46.3361C40.4969 46.3435 40.6483 46.351 40.8875 46.4849C41.1231 46.6152 41.2316 46.7007 41.34 46.7863C41.4484 46.8719 41.5569 46.9575 41.7924 47.0877C42.0304 47.2172 42.163 47.2602 42.2941 47.3028C42.4266 47.3458 42.5577 47.3884 42.7946 47.5193C42.8158 47.5304 42.8361 47.5413 42.8559 47.5519ZM60.3367 53.7459C60.3361 53.6933 60.3388 53.635 60.3471 53.5693C60.377 53.3312 60.4069 53.214 60.4368 53.0968C60.4667 52.9796 60.4967 52.8624 60.5266 52.6242C60.5568 52.3838 60.5203 52.2591 60.4835 52.1332C60.4473 52.0098 60.4109 51.8852 60.4368 51.6494C60.4666 51.3535 60.5535 51.2102 60.64 51.0678C60.7274 50.9237 60.8143 50.7805 60.8407 50.481C60.8669 50.1789 60.8293 50.0245 60.7918 49.8707C60.7545 49.7175 60.7173 49.565 60.7435 49.268C60.7695 48.9717 60.8085 48.8247 60.8476 48.6775C60.8871 48.5289 60.9266 48.3801 60.9529 48.0773C60.9817 47.7866 60.9845 47.6344 60.9871 47.4871C60.99 47.3289 60.9928 47.1764 61.0276 46.8643C61.0613 46.5629 61.1024 46.4141 61.1435 46.2653L61.1436 46.2652C61.1847 46.1164 61.2258 45.9676 61.2595 45.6662C61.2901 45.3919 61.3238 45.2425 61.355 45.1042C61.3923 44.9386 61.4261 44.7892 61.4464 44.4606C61.4693 44.1537 61.3991 43.9992 61.3276 43.8419C61.2587 43.6903 61.1886 43.536 61.1996 43.2401C61.2109 42.9388 61.2539 42.7881 61.2969 42.6374C61.3399 42.4867 61.3829 42.336 61.3941 42.0346C61.4053 41.7332 61.4128 41.5825 61.4203 41.4318C61.4277 41.2811 61.4352 41.1304 61.4464 40.829C61.4464 40.8141 61.4408 40.7974 61.4352 40.7806L61.4352 40.7806C61.4296 40.7639 61.424 40.7471 61.424 40.7323C61.4651 40.4309 61.4894 40.2802 61.5137 40.1295L61.5138 40.1294L61.5138 40.1293C61.5381 39.9787 61.5624 39.828 61.6035 39.5267C61.6437 39.232 61.6893 39.085 61.7341 38.9403C61.781 38.7891 61.827 38.6405 61.8652 38.3286C61.9114 37.9907 61.9222 37.8399 61.9347 37.6664L61.9347 37.6663V37.6663C61.9445 37.5303 61.9553 37.3804 61.9849 37.1155C62.0096 36.8974 62.0262 36.7581 62.0403 36.64L62.0404 36.6391L62.0405 36.6385C62.0648 36.4351 62.0817 36.2936 62.1195 35.9174C62.1495 35.6153 62.1081 35.459 62.0669 35.3034C62.0258 35.1484 61.985 34.994 62.0148 34.697C62.0498 34.3486 62.072 34.2015 62.0994 34.0202C62.1188 33.8916 62.1408 33.7458 62.1719 33.4988C62.2007 33.2586 62.2035 33.1324 62.2062 33.0111C62.209 32.8808 62.2118 32.7561 62.2467 32.5016C62.2803 32.2523 62.3289 32.1333 62.3775 32.0142C62.3862 31.993 62.3949 31.9717 62.4035 31.9497C62.387 31.9648 62.3696 31.9801 62.3513 31.9958C62.1242 32.1889 61.9832 32.2571 61.8458 32.3236C61.7026 32.393 61.5632 32.4604 61.3342 32.6655C61.0929 32.886 61.0001 33.0127 60.901 33.1482C60.8127 33.2688 60.7194 33.3964 60.5115 33.6032C60.2871 33.8227 60.16 33.9157 60.0329 34.0088C59.9057 34.1018 59.7786 34.1948 59.5542 34.4143C59.3299 34.6339 59.2102 34.7343 59.0906 34.8348C58.9709 34.9353 58.8512 35.0357 58.6269 35.2553C58.6077 35.2744 58.5667 35.2621 58.5253 35.2496C58.4862 35.2378 58.4468 35.2259 58.425 35.2404C58.1763 35.4176 58.0805 35.5491 57.985 35.6801C57.888 35.8132 57.7912 35.946 57.535 36.126C57.2827 36.3059 57.1403 36.3725 56.9962 36.44C56.8542 36.5065 56.7105 36.5738 56.4581 36.7511C56.164 36.9607 56.0631 37.073 55.9362 37.2142C55.8469 37.3136 55.7447 37.4273 55.5532 37.5994C55.126 37.9833 55.1051 38.0073 54.7828 38.3752L54.6931 38.4776C54.4907 38.7046 54.3716 38.8055 54.2539 38.9053C54.1323 39.0083 54.0121 39.1101 53.8032 39.3482C53.6023 39.5735 53.4888 39.6799 53.3774 39.7844C53.2606 39.894 53.1461 40.0014 52.9356 40.2413C52.9159 40.2609 52.8856 40.2619 52.856 40.2628C52.8296 40.2636 52.8037 40.2644 52.7861 40.2785C52.6488 40.3898 52.5629 40.4846 52.4992 40.5721C52.5026 40.5936 52.5058 40.615 52.5089 40.6363C52.5321 40.793 52.5554 40.9507 52.6962 41.2162C52.8014 41.4095 52.8668 41.5341 52.9217 41.6388C53.019 41.8242 53.0836 41.9474 53.2796 42.2804C53.4289 42.5472 53.5273 42.6637 53.6279 42.7828C53.7238 42.8963 53.8217 43.0122 53.9676 43.2627C54.1194 43.517 54.1796 43.6544 54.2388 43.7899C54.2992 43.928 54.3587 44.064 54.5135 44.3194C54.5271 44.3397 54.5514 44.3507 54.5753 44.3616C54.6042 44.3748 54.6325 44.3877 54.6407 44.4162C54.7491 44.6878 54.8351 44.8106 54.9211 44.9334C55.0071 45.0562 55.0931 45.179 55.2016 45.4506C55.3037 45.7063 55.3014 45.868 55.2992 46.0211C55.2967 46.1933 55.2944 46.3546 55.4409 46.6264C55.6479 47.0106 55.7168 47.1073 55.8762 47.3312C55.9299 47.4065 55.9937 47.4963 56.0766 47.6161C56.2442 47.8587 56.371 47.9469 56.5006 48.0369C56.6255 48.1236 56.7529 48.2122 56.9217 48.4422C57.1071 48.6973 57.2051 48.8096 57.309 48.9287C57.4021 49.0353 57.4999 49.1474 57.6695 49.3724C57.849 49.6105 57.9518 49.7203 58.0547 49.8301C58.1575 49.9398 58.2603 50.0496 58.4398 50.2877C58.4587 50.3102 58.4149 50.3705 58.3706 50.4314C58.327 50.4915 58.2829 50.5521 58.2977 50.578C58.4307 50.8316 58.5181 50.9491 58.6049 51.0658C58.6939 51.1854 58.7822 51.3042 58.9185 51.5677C59.0874 51.8947 59.171 52.0018 59.2911 52.1558C59.3624 52.2471 59.4466 52.355 59.5691 52.5352C59.7174 52.7498 59.7731 52.8889 59.8243 53.0171C59.8869 53.1734 59.9429 53.3135 60.1524 53.5547C60.2214 53.634 60.2817 53.6956 60.3367 53.7459ZM23.26 55.3036C23.1843 55.4305 23.1346 55.567 23.1115 55.7042C23.0178 55.5008 23.08 55.358 23.164 55.1651C23.2234 55.0286 23.2938 54.867 23.3278 54.641C23.3748 54.3279 23.4288 54.1697 23.4813 54.0158C23.5374 53.8514 23.5919 53.6918 23.6344 53.3535C23.6804 52.9915 23.6896 52.8496 23.7021 52.6567C23.7099 52.5363 23.719 52.3962 23.7391 52.1703C23.7649 51.881 23.749 51.7304 23.7333 51.5821C23.7171 51.429 23.7012 51.2782 23.7316 50.9796C23.7495 50.8039 23.76 50.6794 23.7688 50.5757C23.7894 50.3323 23.8003 50.2034 23.8737 49.7964C23.9163 49.5604 23.9292 49.4142 23.9405 49.2853C23.9572 49.0971 23.9705 48.9457 24.0682 48.6057C24.1548 48.3437 24.2269 48.2111 24.2943 48.0872C24.3724 47.9437 24.4441 47.8119 24.5244 47.5043C24.6008 47.2074 24.6441 47.0644 24.6881 46.9188C24.7301 46.7796 24.7728 46.6382 24.8459 46.3582C24.8497 46.3434 24.8796 46.3341 24.9095 46.3248C24.9394 46.3155 24.9693 46.3062 24.9731 46.2913C25.0196 46.0066 25.0353 45.8564 25.0504 45.7112C25.067 45.5527 25.083 45.4003 25.1376 45.0857C25.19 44.7843 25.1656 44.6262 25.1413 44.468C25.117 44.3099 25.0927 44.1518 25.1451 43.8504C25.199 43.544 25.2073 43.3934 25.2159 43.2371C25.2241 43.0897 25.2325 42.9374 25.2797 42.6448C25.328 42.3526 25.4225 42.2167 25.5164 42.0816C25.6114 41.945 25.7057 41.8093 25.7508 41.5136C25.7957 41.2197 25.777 41.0671 25.7583 40.9146C25.7396 40.762 25.7209 40.6095 25.7658 40.3155C25.8299 39.8578 25.8531 39.7609 25.9238 39.4665L25.9238 39.4665L25.9239 39.4662C25.944 39.3826 25.9679 39.283 25.9976 39.1546C26.1323 38.5741 26.1323 38.5741 26.3117 38.0086L26.3117 38.0086C26.3989 37.7219 26.4727 37.5882 26.5476 37.4523C26.6204 37.3202 26.6944 37.1861 26.7829 36.9072C26.868 36.6272 26.8652 36.4713 26.8624 36.3165C26.8596 36.1587 26.8568 36.0021 26.9474 35.7165C26.954 35.6937 26.9634 35.6752 26.9725 35.6572L26.9725 35.6572C26.9843 35.6341 26.9956 35.6118 26.9998 35.5825C27.0334 35.3518 27.0316 35.2346 27.0297 35.1174C27.0278 35.0002 27.026 34.883 27.0596 34.6523C27.0933 34.4216 27.1793 34.3174 27.2653 34.2133C27.3044 34.1658 27.3436 34.1184 27.3778 34.059C27.4175 34.0977 27.4606 34.1412 27.5082 34.1911C27.7197 34.4126 27.7674 34.581 27.8147 34.748C27.8627 34.9178 27.9104 35.0861 28.129 35.3074C28.34 35.5211 28.5055 35.5686 28.6723 35.6164C28.8365 35.6635 29.0019 35.7109 29.2134 35.9176C29.4265 36.126 29.5106 36.2543 29.5948 36.3827C29.6789 36.5111 29.763 36.6394 29.9762 36.8478C30.1759 37.0465 30.2956 37.1369 30.4109 37.2239C30.5374 37.3194 30.6584 37.4108 30.8736 37.6366C31.0936 37.867 31.1682 38.0082 31.2454 38.1544C31.3178 38.2914 31.3925 38.4328 31.5916 38.6562C31.7972 38.8869 31.8758 39.0245 31.9543 39.1622C32.0328 39.2999 32.1113 39.4376 32.317 39.6682C32.4375 39.8034 32.522 39.8996 32.5921 39.9793C32.7612 40.1717 32.8457 40.2679 33.1471 40.5836C33.325 40.7732 33.4556 40.8541 33.5803 40.9175C33.4931 41.0633 33.4234 41.1464 33.3534 41.2298C33.2646 41.3357 33.1754 41.442 33.0496 41.6776C32.9292 41.9032 32.9127 42.0503 32.897 42.1909C32.8796 42.3472 32.863 42.4954 32.7056 42.7344C32.5858 42.9145 32.5186 43.0289 32.4605 43.1275L32.4605 43.1275C32.37 43.2814 32.302 43.397 32.0923 43.6646C31.9211 43.8831 31.7665 43.9413 31.6139 43.9987C31.4599 44.0566 31.3078 44.1138 31.1425 44.3343C30.9735 44.5598 30.9249 44.6951 30.8749 44.8337C30.8277 44.965 30.7793 45.0995 30.6265 45.3167C30.4533 45.5629 30.3596 45.6621 30.254 45.7739C30.1682 45.8648 30.0744 45.964 29.9235 46.1576C29.7807 46.3407 29.7053 46.4502 29.6383 46.5473L29.6382 46.5474C29.5473 46.6792 29.472 46.7884 29.2654 47.0283C29.0859 47.2366 28.9924 47.3371 28.8989 47.4376L28.8989 47.4376C28.8055 47.538 28.712 47.6385 28.5325 47.8469C28.517 47.8661 28.5577 47.9254 28.5974 47.9832C28.6344 48.0369 28.6704 48.0894 28.6596 48.1073C28.5212 48.3211 28.429 48.4185 28.3388 48.5136C28.2437 48.6139 28.151 48.7117 28.009 48.9408C27.8497 49.1978 27.7499 49.2797 27.6283 49.3796C27.5386 49.4533 27.4371 49.5367 27.291 49.7073C27.1402 49.8868 27.0785 50.0076 27.0227 50.1168C26.9513 50.2566 26.8896 50.3774 26.6628 50.578C26.4609 50.7566 26.3544 50.8385 26.2478 50.9203L26.2478 50.9203L26.2477 50.9204C26.1412 51.0022 26.0346 51.0841 25.8327 51.2627C25.8047 51.2871 25.7405 51.287 25.6756 51.2869C25.602 51.2867 25.5275 51.2866 25.5036 51.3222C25.3429 51.5603 25.3167 51.7166 25.2905 51.8729C25.2643 52.0292 25.2382 52.1854 25.0774 52.4236C24.921 52.6551 24.8106 52.7565 24.7032 52.8552C24.5897 52.9594 24.4796 53.0606 24.322 53.3092C24.1536 53.5708 24.0957 53.6977 24.0307 53.8403C23.9773 53.9573 23.9191 54.085 23.791 54.3064C23.6516 54.5473 23.5896 54.6755 23.529 54.8006C23.4661 54.9305 23.4048 55.0572 23.26 55.3036ZM26.4594 30.8604C26.4184 30.8642 26.3744 30.868 26.3266 30.8721C25.9452 30.9018 25.5862 31.0953 25.4516 31.4525C25.3176 31.8081 25.3022 32.3185 25.5676 32.6021C25.558 32.7013 25.544 32.8209 25.519 32.9928C25.4778 33.2726 25.4685 33.414 25.4591 33.5567C25.4498 33.6987 25.4404 33.8419 25.3994 34.1239C25.3622 34.3579 25.3494 34.4989 25.3382 34.6227C25.3222 34.7984 25.3094 34.9396 25.2348 35.2625C25.1649 35.5639 25.0487 35.6867 24.9279 35.8143C24.8161 35.9325 24.7004 36.0548 24.6141 36.3267C24.5244 36.6095 24.5131 36.7621 24.5019 36.9146C24.4907 37.0672 24.4795 37.2197 24.3897 37.5025C24.3 37.7853 24.2701 37.9323 24.2402 38.0793C24.2102 38.2262 24.1803 38.3732 24.0906 38.656C24.0835 38.6806 24.0664 38.7002 24.0496 38.7196C24.0308 38.7412 24.0123 38.7625 24.0083 38.79C23.9635 39.0876 23.9167 39.2327 23.87 39.3779C23.8232 39.523 23.7765 39.6681 23.7316 39.9658C23.6867 40.2634 23.6419 40.4085 23.597 40.5537C23.5521 40.6988 23.5073 40.8439 23.4624 41.1416C23.4191 41.4287 23.4089 41.5791 23.399 41.7246C23.3883 41.8809 23.3781 42.0315 23.3278 42.3397C23.2815 42.6193 23.2657 42.7676 23.2506 42.9095C23.234 43.0659 23.2181 43.2146 23.1632 43.5229C23.1133 43.829 23.0672 43.9738 23.0201 44.1221C22.9755 44.2623 22.9299 44.4056 22.879 44.6913C22.8373 44.9437 22.8231 45.0891 22.8105 45.2188C22.7937 45.3912 22.7796 45.5358 22.707 45.8671C22.6447 46.1554 22.6813 46.3184 22.7171 46.4781C22.7543 46.6441 22.7907 46.8066 22.7145 47.1024C22.6397 47.3927 22.5986 47.5378 22.5575 47.6829C22.5163 47.828 22.4752 47.9731 22.4004 48.2633C22.3256 48.5536 22.2284 48.6838 22.1312 48.814C22.034 48.9443 21.9367 49.0745 21.862 49.3647C21.8551 49.3886 21.8389 49.4139 21.8226 49.4395C21.8032 49.4697 21.7837 49.5002 21.7797 49.5285C21.7538 49.8223 21.7772 49.9748 21.8003 50.1254C21.824 50.2799 21.8474 50.4326 21.8171 50.734C21.7912 51.0287 21.8239 51.1811 21.8563 51.3322C21.8893 51.4863 21.9221 51.6389 21.8919 51.9396C21.8653 52.2418 21.7636 52.381 21.6601 52.5227C21.5597 52.6601 21.4575 52.7999 21.4207 53.0931C21.3955 53.3184 21.4049 53.4372 21.414 53.5518C21.4238 53.6757 21.4332 53.7947 21.3983 54.0382C21.3604 54.2759 21.3763 54.3969 21.3924 54.5196C21.4081 54.6388 21.424 54.7596 21.3908 54.9907C21.3571 55.2251 21.3123 55.3368 21.2674 55.4484C21.2225 55.56 21.1777 55.6716 21.144 55.9061C21.1103 56.1368 21.0954 56.254 21.0804 56.3712C21.0655 56.4884 21.0505 56.6056 21.0169 56.8363C20.972 57.1265 21.159 57.3572 21.3534 57.5805C21.5478 57.7963 21.7498 57.9153 22.0414 57.9153C22.0414 57.9153 22.0489 58.1163 22.0265 58.0939C22.3284 58.0902 22.4798 58.0607 22.6317 58.031C22.7846 58.0011 22.9379 57.9712 23.2455 57.9674C23.5521 57.9637 23.7054 57.9656 23.8586 57.9674H23.8588C24.0121 57.9693 24.1654 57.9712 24.472 57.9674C24.7735 57.9637 24.9249 57.9582 25.0766 57.9526H25.0767H25.0767C25.2297 57.947 25.383 57.9414 25.691 57.9377C25.9911 57.9377 26.1407 57.9583 26.2898 57.9788C26.4379 57.9992 26.5856 58.0195 26.8801 58.0195C27.1802 58.0195 27.3298 58.0345 27.4789 58.0494L27.4789 58.0494C27.6271 58.0643 27.7748 58.0791 28.0692 58.0791C28.3702 58.0791 28.5198 58.0791 28.6694 58.0781C28.8171 58.0772 28.9648 58.0753 29.2583 58.0716C29.5575 58.0679 29.7052 58.0065 29.8529 57.9451C30.0006 57.8837 30.1483 57.8223 30.4474 57.8186C30.7466 57.8149 30.8943 57.787 31.042 57.7591C31.1897 57.7312 31.3374 57.7033 31.6365 57.6995C31.9287 57.6959 32.08 57.7777 32.2298 57.8587C32.3829 57.9415 32.5344 58.0234 32.8331 58.0121C33.1216 58.0009 33.2618 57.9113 33.4033 57.8209C33.5442 57.7308 33.6863 57.64 33.9774 57.6251C34.269 57.6102 34.4149 57.6344 34.5607 57.6586C34.7065 57.6828 34.8524 57.707 35.144 57.6921C35.4501 57.6802 35.5956 57.7083 35.7512 57.7383C35.8884 57.7648 36.0334 57.7928 36.3032 57.7963C36.583 57.7998 36.7303 57.7486 36.8722 57.6993C37.0262 57.6458 37.1738 57.5944 37.4774 57.6177C37.7722 57.6365 37.9142 57.6876 38.0579 57.7394C38.1985 57.79 38.3406 57.8412 38.6291 57.8633C38.944 57.8833 39.0868 57.8991 39.2432 57.9164H39.2433L39.2433 57.9164C39.3766 57.9311 39.52 57.9469 39.7883 57.9674C39.817 57.971 39.8474 57.9986 39.8771 58.0255C39.9093 58.0546 39.9405 58.0829 39.9678 58.0791C40.2594 58.053 40.4034 58.0307 40.5474 58.0084C40.6913 57.986 40.8353 57.9637 41.127 57.9377C41.4186 57.9116 41.5588 57.8484 41.6991 57.7851C41.8393 57.7219 41.9795 57.6586 42.2712 57.6326C42.5468 57.6112 42.6905 57.5779 42.8293 57.5457C42.9806 57.5106 43.1262 57.4769 43.4304 57.4614C43.7289 57.4462 43.8766 57.5225 44.0279 57.6007C44.1722 57.6753 44.3197 57.7516 44.6045 57.7516C44.8962 57.7516 45.042 57.7107 45.1879 57.6698C45.3337 57.6288 45.4795 57.5879 45.7712 57.5879C46.0629 57.5879 46.2087 57.6028 46.3545 57.6177C46.5004 57.6326 46.6462 57.6474 46.9379 57.6474C46.9614 57.6474 46.987 57.6352 47.0136 57.6224L47.0136 57.6224C47.0377 57.6108 47.0625 57.5989 47.0874 57.5953C47.3672 57.5514 47.5147 57.5597 47.661 57.568C47.8119 57.5765 47.9617 57.5849 48.2541 57.5358C48.5395 57.4879 48.6761 57.4162 48.8114 57.3452C48.9491 57.2729 49.0854 57.2013 49.3759 57.1563C49.5015 57.1352 49.6001 57.118 49.6834 57.1034L49.6838 57.1033L49.6842 57.1033C49.9823 57.0512 50.0853 57.0333 50.5351 56.9926C50.7691 56.9717 50.9105 56.9532 51.0335 56.9371L51.0336 56.937L51.0336 56.937C51.2172 56.913 51.36 56.8943 51.7092 56.8809C52.0035 56.8735 52.1531 56.9381 52.3011 57.0021C52.4504 57.0665 52.5981 57.1303 52.8909 57.1191C53.1916 57.1076 53.3373 57.0862 53.4879 57.064C53.6293 57.0433 53.775 57.0219 54.0575 57.0074C54.3137 56.9962 54.437 56.9283 54.5613 56.8599C54.6838 56.7925 54.8073 56.7246 55.0597 56.7098C55.3086 56.6952 55.4375 56.7092 55.5638 56.7228C55.6956 56.7371 55.8246 56.7511 56.0843 56.7321C56.3463 56.7168 56.4713 56.6935 56.6005 56.6695C56.7221 56.6469 56.8474 56.6236 57.0939 56.6056C57.3168 56.5925 57.442 56.5881 57.5552 56.584H57.5553C57.7002 56.5789 57.8254 56.5744 58.111 56.5535C58.3636 56.5387 58.4963 56.6066 58.6282 56.6741C58.7618 56.7424 58.8946 56.8104 59.1505 56.7916C59.4048 56.773 59.53 56.7526 59.6553 56.7321C59.7806 56.7116 59.9058 56.6912 60.1601 56.6726C60.4144 56.654 60.5378 56.6056 60.6612 56.5572C60.7846 56.5088 60.908 56.4605 61.1623 56.4419C61.6409 56.4121 61.8652 56.0549 61.9251 55.5786C61.9662 55.2698 62.0242 55.1191 62.0821 54.9684C62.1401 54.8177 62.198 54.667 62.2392 54.3582C62.2803 54.0493 62.2728 53.8912 62.2654 53.7331C62.2579 53.5749 62.2504 53.4168 62.2915 53.108C62.3156 52.927 62.3333 52.7991 62.3479 52.6931C62.3833 52.4373 62.401 52.3094 62.4486 51.8726C62.475 51.6063 62.4927 51.4591 62.5087 51.3257C62.5289 51.1573 62.5465 51.0109 62.5757 50.6745C62.6019 50.3731 62.6636 50.2261 62.7253 50.0791C62.787 49.9322 62.8487 49.7852 62.8749 49.4838C62.8997 49.1975 62.9043 49.0472 62.9088 48.9037V48.9036C62.9136 48.745 62.9182 48.5947 62.9496 48.2782C62.9792 47.9767 62.9595 47.8205 62.9401 47.6669C62.9202 47.5097 62.9006 47.3552 62.9347 47.0503C62.9683 46.7489 63.0001 46.5983 63.0319 46.4476C63.0637 46.2969 63.0955 46.1462 63.1291 45.8448C63.1628 45.5434 63.1647 45.3908 63.1665 45.2383C63.1684 45.0857 63.1703 44.9331 63.2039 44.6318C63.2039 44.6206 63.2394 44.6094 63.275 44.5983C63.3105 44.5871 63.346 44.5759 63.346 44.5648C63.3572 44.2634 63.303 44.1108 63.2488 43.9583C63.1946 43.8057 63.1404 43.6532 63.1516 43.3518C63.1628 43.0504 63.1871 42.8997 63.2114 42.749C63.2357 42.5983 63.26 42.4476 63.2712 42.1462C63.284 41.8035 63.3064 41.658 63.333 41.4855V41.4855C63.3532 41.3546 63.3758 41.2081 63.3984 40.9481C63.4203 40.6953 63.4252 40.5473 63.4295 40.4161C63.4354 40.2344 63.4403 40.0851 63.4881 39.7351C63.5292 39.4337 63.6134 39.2923 63.6975 39.1509C63.7816 39.0095 63.8658 38.8681 63.9069 38.5667C63.9488 38.2601 63.9113 38.1018 63.8732 37.9409C63.8364 37.7854 63.7991 37.6276 63.8321 37.3314C63.8647 37.0435 63.8972 36.8966 63.9289 36.7535C63.9628 36.6006 63.9957 36.452 64.0266 36.1407C64.052 35.8515 64.0492 35.701 64.0464 35.5536V35.5536C64.0435 35.3976 64.0407 35.245 64.0714 34.9351C64.1004 34.6432 64.1013 34.4909 64.1022 34.3438C64.1031 34.1872 64.104 34.0365 64.1388 33.7295C64.1763 33.4272 64.257 33.2859 64.3386 33.1431C64.4197 33.0012 64.5016 32.8579 64.5426 32.5537C64.5838 32.248 64.5312 32.0861 64.4787 31.9248C64.4265 31.7642 64.3744 31.6043 64.4155 31.3035C64.4566 31.0021 64.5089 30.8551 64.5613 30.7082C64.6136 30.5612 64.666 30.4142 64.7071 30.1128C64.7131 30.071 64.7324 30.0269 64.7518 29.9822C64.7808 29.9155 64.8103 29.8478 64.7969 29.7854C64.7741 29.6496 64.7322 29.5884 64.6895 29.5261C64.648 29.4655 64.6058 29.404 64.58 29.2719C64.4902 28.7584 64.064 28.3863 63.5405 28.431C63.2338 28.457 63.0768 28.4384 62.9197 28.4198C62.7627 28.4012 62.6056 28.3826 62.299 28.4087C62.1267 28.4254 62.0033 28.4421 61.9015 28.4587C61.8106 28.4516 61.7374 28.4433 61.6641 28.4351C61.5149 28.4183 61.3653 28.4014 61.0649 28.3939C60.7798 28.3868 60.6305 28.3561 60.4876 28.3266C60.3307 28.2943 60.1815 28.2635 59.8683 28.2674C59.5537 28.2712 59.3985 28.3419 59.2411 28.4136C59.0881 28.4834 58.9329 28.5541 58.6269 28.5651C58.3165 28.5763 58.1595 28.5372 58.0024 28.4981C57.8454 28.4591 57.6883 28.42 57.378 28.4311C57.0676 28.4423 56.9143 28.5074 56.761 28.5725C56.6077 28.6377 56.4543 28.7028 56.144 28.7139C56.1288 28.7177 56.1097 28.6522 56.0906 28.5868C56.0723 28.5238 56.054 28.4609 56.0393 28.4609C55.7384 28.4979 55.5889 28.5312 55.4394 28.5644C55.2879 28.5981 55.1364 28.6318 54.8277 28.6693C54.5211 28.7065 54.3697 28.7344 54.2182 28.7623C54.0668 28.7902 53.9153 28.8181 53.6087 28.8553C53.2891 28.8946 53.136 28.8945 52.9726 28.8944C52.8264 28.8943 52.6719 28.8942 52.3822 28.9223C52.0571 28.9543 51.9064 28.9476 51.7418 28.9404C51.6441 28.9361 51.5414 28.9315 51.3944 28.9347C51.333 28.9306 51.2643 28.9287 51.1857 28.9296C50.9922 28.9319 50.8589 28.9603 50.7489 28.9988C50.6758 29.0151 50.6138 29.0333 50.5514 29.0515C50.4038 29.0947 50.2542 29.1384 49.9517 29.1604C49.7318 29.1764 49.5917 29.1963 49.4742 29.2155C49.4228 29.2118 49.3759 29.2076 49.3293 29.2034C49.1684 29.189 49.0115 29.1749 48.6879 29.1826C48.384 29.1899 48.2288 29.1722 48.0768 29.1549C47.9183 29.1368 47.7632 29.1191 47.4464 29.1305C47.136 29.1417 46.9827 29.1621 46.8294 29.1826C46.6761 29.2031 46.5228 29.2235 46.2124 29.2347C45.9878 29.2428 45.8444 29.2343 45.7235 29.2209C45.7004 29.2132 45.6778 29.2054 45.6552 29.1976C45.5037 29.1456 45.3523 29.0935 45.0457 29.0786C45.0232 29.0786 45.0027 29.1028 44.9821 29.127C44.9679 29.1436 44.9538 29.1603 44.939 29.169C44.8899 29.1715 44.8461 29.1759 44.8065 29.1818C44.5654 29.189 44.4265 29.1459 44.2866 29.1026C44.1289 29.0536 43.9701 29.0043 43.6621 29.0265C43.4588 29.0411 43.3244 29.0725 43.2139 29.1097C43.1694 29.1032 43.12 29.0999 43.0639 29.1007C42.8283 29.1045 42.7106 29.1603 42.5928 29.2161C42.475 29.2719 42.3572 29.3277 42.1216 29.3314C41.8994 29.3349 41.7804 29.3207 41.6695 29.3075C41.5415 29.2922 41.4243 29.2783 41.1718 29.2942C40.9042 29.312 40.7625 29.3026 40.6267 29.2937C40.4778 29.2838 40.3358 29.2744 40.0425 29.3017C39.7508 29.3249 39.6128 29.3481 39.4686 29.3724C39.4122 29.3819 39.3548 29.3916 39.287 29.4014C39.1467 29.3903 38.9922 29.3822 38.7187 29.3986C38.4151 29.4207 38.2655 29.5012 38.1165 29.5813L38.0882 29.5964C38.0147 29.6081 37.9284 29.6192 37.8214 29.6291C37.5354 29.6522 37.3992 29.6753 37.2569 29.6994C37.1974 29.7095 37.1368 29.7197 37.0636 29.7302C36.9535 29.7226 36.8655 29.701 36.7779 29.6795C36.614 29.6392 36.4512 29.5991 36.1461 29.6516C35.8432 29.7037 35.6992 29.7725 35.5553 29.8414C35.4456 29.8938 35.3359 29.9462 35.156 29.9913L35.0506 30.0012C34.9122 30.0142 34.7739 30.0272 34.4934 30.0533C34.2167 30.0793 34.0727 30.0458 33.9288 30.0124C33.7848 29.9789 33.6408 29.9454 33.3641 29.9714C33.0811 29.994 32.9466 30.0544 32.8107 30.1154C32.6773 30.1753 32.5426 30.2359 32.2648 30.2617C31.9837 30.2878 31.8397 30.2578 31.6963 30.228C31.5536 30.1983 31.4115 30.1687 31.1355 30.1947C30.8359 30.2189 30.6985 30.2365 30.5476 30.2558C30.4199 30.2722 30.2824 30.2899 30.0286 30.3138C30.0086 30.3138 29.9929 30.3265 29.9769 30.3396C29.963 30.3509 29.9488 30.3624 29.9314 30.3658C29.636 30.4254 29.479 30.4031 29.3219 30.3807C29.1649 30.3584 29.0078 30.3361 28.7124 30.3956C28.4245 30.4544 28.2805 30.4932 28.1374 30.5318C27.9907 30.5714 27.8449 30.6107 27.5457 30.671C27.2503 30.7305 27.1026 30.7528 26.9549 30.7751L26.9549 30.7751C26.824 30.7949 26.6931 30.8147 26.4594 30.8604ZM28.7636 32.4366C28.7421 32.479 28.732 32.545 28.7347 32.6432C28.7488 33.1419 28.9095 33.2261 29.1655 33.3602C29.3182 33.4402 29.5048 33.5379 29.7144 33.752C29.9108 33.9544 30.0085 34.0684 30.1008 34.1762L30.1009 34.1762L30.1009 34.1762C30.2055 34.2983 30.3032 34.4123 30.5296 34.6376C30.9558 35.0617 30.9559 35.0618 31.3893 35.4856L31.3894 35.4857L31.3894 35.4857L31.3896 35.486C31.6146 35.7098 31.7021 35.8342 31.795 35.9662L31.795 35.9662C31.8782 36.0844 31.9657 36.2088 32.1599 36.4162C32.3567 36.6223 32.4738 36.7237 32.5833 36.8186L32.5833 36.8186C32.711 36.9293 32.8284 37.031 33.0499 37.2794C33.2556 37.5101 33.3434 37.6404 33.4313 37.7706L33.4313 37.7706L33.4313 37.7706C33.5192 37.9008 33.6071 38.0311 33.8127 38.2617C34.0213 38.4957 34.1721 38.567 34.3258 38.6396C34.4751 38.7103 34.6271 38.7821 34.8373 39.0059C35.0328 39.2112 35.1108 39.3381 35.1869 39.4616C35.2679 39.5932 35.3466 39.7211 35.5627 39.9362C35.7721 40.1445 35.8918 40.232 36.0115 40.3194C36.1311 40.4068 36.2508 40.4943 36.4602 40.7027C36.6561 40.8976 36.7407 41.0193 36.8205 41.1339C36.9112 41.2644 36.9956 41.3858 37.2305 41.5957C37.3716 41.7195 37.4668 41.8052 37.546 41.8764L37.546 41.8764C37.7144 42.028 37.8102 42.1142 38.1204 42.3622C38.3721 42.5601 38.4652 42.6725 38.5682 42.797C38.655 42.9019 38.7488 43.0153 38.9506 43.1957C39.2172 43.402 39.3521 43.4749 39.5071 43.5586C39.6259 43.6229 39.7566 43.6935 39.9677 43.8356C40.4442 44.1564 40.4808 44.1766 40.9265 44.4228L41.0221 44.4756C41.2914 44.6245 41.4391 44.6766 41.5868 44.7287C41.7345 44.7808 41.8822 44.8328 42.1514 44.9817C42.3694 45.1022 42.4857 45.2349 42.5875 45.3512C42.7373 45.5221 42.8559 45.6575 43.2209 45.6663C43.5283 45.6747 43.6104 45.5108 43.7077 45.3169C43.7831 45.1664 43.8676 44.9978 44.0734 44.8775C44.309 44.7398 44.4548 44.7175 44.6007 44.6952C44.7465 44.6728 44.8923 44.6505 45.1279 44.5129C45.333 44.393 45.4659 44.3465 45.5856 44.3045C45.741 44.2501 45.8744 44.2033 46.1151 44.0142C46.388 43.7979 46.4785 43.671 46.5849 43.522C46.6652 43.4095 46.7545 43.2845 46.9378 43.0989C47.15 42.8841 47.2287 42.7485 47.3078 42.6124C47.3876 42.475 47.4678 42.3371 47.6856 42.1166C47.8906 41.9091 47.9918 41.7944 48.0899 41.6834C48.1958 41.5634 48.298 41.4477 48.5232 41.2236C48.5342 41.2126 48.5705 41.2232 48.6081 41.2341C48.6471 41.2455 48.6875 41.2573 48.7027 41.2459C48.9485 41.0434 49.0838 40.9645 49.2232 40.8832C49.3552 40.8063 49.4908 40.7272 49.7273 40.5389C49.9666 40.3417 50.0807 40.2357 50.1947 40.1296C50.3088 40.0236 50.4228 39.9175 50.6621 39.7203C50.918 39.5095 51.0071 39.3795 51.1033 39.2393C51.187 39.1173 51.2759 38.9876 51.4848 38.7901C51.7514 38.5337 51.8411 38.4191 51.9578 38.27L51.9578 38.27C52.0376 38.1681 52.13 38.0502 52.2999 37.8599C52.5076 37.6275 52.6361 37.5322 52.7631 37.4382C52.8923 37.3424 53.0199 37.248 53.2273 37.0115C53.4351 36.7789 53.5655 36.6855 53.6945 36.5932C53.8255 36.4995 53.9549 36.4068 54.1621 36.1706C54.1863 36.1466 54.1977 36.113 54.2089 36.0802C54.2219 36.0419 54.2346 36.0046 54.2668 35.9846C54.5211 35.8022 54.6669 35.7371 54.8128 35.672C54.9586 35.6069 55.1044 35.5418 55.3587 35.3594C55.613 35.1771 55.6915 35.0208 55.77 34.8646C55.8486 34.7083 55.9271 34.552 56.1814 34.3697C56.4275 34.1932 56.607 34.1701 56.781 34.1477C56.9666 34.1239 57.1459 34.1008 57.3929 33.8934C57.6508 33.6769 57.7437 33.5468 57.8447 33.4054C57.9311 33.2843 58.0235 33.1548 58.2305 32.9558C58.4558 32.7353 58.5284 32.5862 58.6007 32.4376C58.6723 32.2904 58.7437 32.1437 58.9634 31.9288C59.2015 31.6958 59.3343 31.6095 59.4758 31.5176C59.601 31.4362 59.733 31.3505 59.9506 31.1548C60.1059 31.0122 60.2863 30.9585 60.4432 30.9119C60.5838 30.8701 60.7055 30.8339 60.7732 30.7442C60.7388 30.7423 60.7058 30.7401 60.6727 30.7379C60.5056 30.7267 60.3392 30.7156 60.0105 30.7454C59.9956 30.7454 59.9806 30.7138 59.9657 30.6821C59.9507 30.6505 59.9358 30.6189 59.9208 30.6189C59.6142 30.6151 59.4609 30.6858 59.3075 30.7565C59.1542 30.8272 59.0009 30.8979 58.6943 30.8942C58.3901 30.8905 58.2368 30.8301 58.0846 30.7701C57.9301 30.7091 57.7768 30.6486 57.4678 30.6486C57.0877 30.644 56.9403 30.6537 56.7372 30.667C56.6126 30.6752 56.467 30.6848 56.2338 30.6933C55.9041 30.7053 55.7539 30.7388 55.5901 30.7753C55.4492 30.8067 55.2984 30.8404 55.0148 30.8644C54.7082 30.8905 54.553 30.8831 54.3978 30.8756C54.3267 30.8722 54.2556 30.8688 54.1699 30.8686C54.0755 30.9045 53.9605 30.9348 53.8032 30.9539C53.5833 30.9806 53.4413 30.9901 53.3213 30.994C53.2728 31.0145 53.2286 31.0363 53.1847 31.0579C53.0318 31.133 52.8825 31.2064 52.5693 31.2217C52.3711 31.231 52.2537 31.1878 52.1491 31.1345L52.1092 31.1522C51.9939 31.204 51.88 31.2551 51.6418 31.2739C51.4062 31.2925 51.2847 31.2348 51.1632 31.1772C51.0417 31.1195 50.9201 31.0618 50.6846 31.0804C50.449 31.099 50.3293 31.0916 50.2097 31.0841C50.09 31.0767 49.9704 31.0693 49.7348 31.0879C49.5007 31.1064 49.3884 31.1855 49.2769 31.2641C49.164 31.3436 49.0519 31.4227 48.8149 31.4376C48.7971 31.4376 48.7758 31.4173 48.7536 31.396C48.7292 31.3727 48.7037 31.3483 48.6803 31.3483C48.3737 31.3334 48.2204 31.3241 48.0671 31.3148L48.067 31.3148L48.067 31.3148L48.067 31.3148C47.9137 31.3055 47.7604 31.2962 47.4538 31.2813C47.1472 31.2665 46.9938 31.2423 46.8405 31.2181C46.6872 31.1939 46.5339 31.1697 46.2273 31.1548C45.9025 31.1391 45.7497 31.1755 45.5867 31.2144C45.442 31.2489 45.2892 31.2853 45.0008 31.2888C44.7105 31.2923 44.5577 31.2475 44.4121 31.2048C44.3573 31.1888 44.3035 31.173 44.2439 31.1602C44.1312 31.1536 43.996 31.1499 43.7968 31.1547C43.4827 31.1621 43.3275 31.2012 43.1724 31.2403C43.0217 31.2782 42.871 31.3161 42.5748 31.3251L42.5627 31.326C42.4561 31.3338 42.3678 31.335 42.2914 31.332C41.9167 31.3412 41.8319 31.3452 41.3419 31.3685L41.3419 31.3685L41.299 31.3705C41.089 31.3818 40.9577 31.3631 40.8453 31.3384C40.804 31.3528 40.7656 31.3679 40.7272 31.383C40.5762 31.4421 40.4267 31.5007 40.1172 31.5195C39.8106 31.5381 39.6554 31.5362 39.5002 31.5344C39.3451 31.5325 39.1899 31.5306 38.8833 31.5493C38.369 31.5805 38.286 31.5907 37.911 31.6371C37.8388 31.646 37.7558 31.6563 37.6568 31.6683C37.3326 31.7037 37.1882 31.7661 37.0346 31.8325C36.8976 31.8917 36.7533 31.9541 36.4676 32.0032C36.1648 32.0553 36.0096 32.0646 35.8544 32.0739C35.6992 32.0832 35.544 32.0925 35.2412 32.1446C34.9314 32.1979 34.7761 32.2025 34.6174 32.2072C34.4656 32.2118 34.3107 32.2164 34.0147 32.2637C34.0013 32.267 33.9864 32.2778 33.9713 32.2887L33.9713 32.2887C33.9528 32.3021 33.934 32.3158 33.9174 32.3158C33.6482 32.3344 33.5155 32.3604 33.3827 32.3865C33.25 32.4125 33.1172 32.4385 32.848 32.4572C32.5788 32.4758 32.4404 32.4199 32.302 32.3641C32.1637 32.3083 32.0253 32.2525 31.7561 32.2711C31.4869 32.2897 31.3579 32.3604 31.2289 32.4311C31.0999 32.5018 30.9708 32.5725 30.7016 32.5911C30.4317 32.6098 30.2933 32.576 30.1555 32.5425C30.0184 32.5091 29.882 32.4758 29.6172 32.4944C29.4225 32.508 29.2499 32.4596 29.1101 32.4193C29.0049 32.4323 28.9278 32.4335 28.8507 32.4347C28.8222 32.4351 28.7936 32.4355 28.7636 32.4366Z" fill="#023866"/>
</svg>
