<svg viewBox="0 0 173 30" xmlns="http://www.w3.org/2000/svg" xmlns:xlink="http://www.w3.org/1999/xlink" overflow="hidden"><g fill="none"><path d="M49.682 23.636C47.5077 23.636 45.411 22.9237 44.0909 21.7282L45.5146 19.3879C46.4464 20.2528 48.2843 21.0922 49.8373 21.0922 51.261 21.0922 51.934 20.558 51.934 19.7949 51.934 17.7853 44.531 19.4388 44.531 14.6056 44.531 12.5451 46.3429 10.7391 49.6562 10.7391 51.7528 10.7391 53.4353 11.4513 54.6778 12.4179L53.3577 14.7073C52.607 13.9442 51.1834 13.2828 49.6562 13.2828 48.4655 13.2828 47.6889 13.7916 47.6889 14.4784 47.6889 16.2845 55.1179 14.7582 55.1179 19.7186 55.1179 21.9825 53.1506 23.636 49.682 23.636ZM68.345 23.3311 65.0318 23.3311 65.0318 22.0337C64.1776 23.0513 62.7021 23.6364 61.0714 23.6364 59.0782 23.6364 56.7486 22.3136 56.7486 19.5662 56.7486 16.6662 59.0782 15.5978 61.0714 15.5978 62.7539 15.5978 64.2034 16.132 65.0318 17.0987L65.0318 15.5469C65.0318 14.3004 63.9446 13.4864 62.288 13.4864 60.9678 13.4864 59.7254 13.9952 58.69 14.9364L57.3957 12.6724C58.9229 11.3241 60.8902 10.7391 62.8574 10.7391 65.7307 10.7391 68.345 11.8583 68.345 15.3943L68.345 23.3311ZM62.3915 21.4487C63.4528 21.4487 64.4882 21.0925 65.0318 20.3802L65.0318 18.8539C64.4882 18.1417 63.4528 17.7601 62.3915 17.7601 61.0973 17.7601 60.036 18.4469 60.036 19.6171 60.036 20.7873 61.0973 21.4487 62.3915 21.4487ZM74.868 23.3311 71.5806 23.3311 71.5806 6.36364 74.868 6.36364 74.868 23.3311ZM84.0054 23.6364C80.2003 23.6364 77.3271 21.118 77.3271 17.175 77.3271 13.6136 80.0191 10.7391 83.7983 10.7391 87.5516 10.7391 90.0624 13.4864 90.0624 17.4803L90.0624 18.2434 80.7698 18.2434C81.0027 19.7443 82.2452 20.9908 84.3678 20.9908 85.429 20.9908 86.8786 20.5583 87.681 19.7952L89.1564 21.932C87.914 23.0513 85.9467 23.6364 84.0054 23.6364ZM86.9045 16.0048C86.8009 14.8347 85.9726 13.3847 83.7983 13.3847 81.7534 13.3847 80.8733 14.7838 80.7439 16.0048L86.9045 16.0048ZM96.9478 23.6364C94.7735 23.6364 92.6768 22.9241 91.3567 21.7285L92.7803 19.3881C93.7122 20.253 95.55 21.0925 97.1031 21.0925 98.5268 21.0925 99.1998 20.5583 99.1998 19.7952 99.1998 17.7855 91.7967 19.439 91.7967 14.6057 91.7967 12.5452 93.6086 10.7391 96.9219 10.7391 99.0186 10.7391 100.701 11.4513 101.944 12.418L100.623 14.7075C99.8728 13.9443 98.4491 13.2829 96.9219 13.2829 95.7312 13.2829 94.9547 13.7917 94.9547 14.4785 94.9547 16.2846 102.384 14.7583 102.384 19.7188 102.384 21.9829 100.416 23.6364 96.9478 23.6364ZM119.286 23.3311 115.766 23.3311 113.126 14.9618 110.486 23.3311 106.965 23.3311 103.16 11.0443 106.577 11.0443 108.907 19.3118 111.65 11.0443 114.575 11.0443 117.319 19.3118 119.649 11.0443 123.091 11.0443 119.286 23.3311ZM136.474 23.3311 133.187 23.3311 133.187 15.8522C133.187 14.1478 132.281 13.6136 130.883 13.6136 129.589 13.6136 128.579 14.3259 128.036 15.0382L128.036 23.3311 124.722 23.3311 124.722 6.36364 128.036 6.36364 128.036 12.6215C128.838 11.7057 130.365 10.7391 132.41 10.7391 135.154 10.7391 136.474 12.2145 136.474 14.6057L136.474 23.3311ZM150.555 23.3311 147.242 23.3311 147.242 22.0337C146.388 23.0513 144.912 23.6364 143.282 23.6364 141.289 23.6364 138.959 22.3136 138.959 19.5662 138.959 16.6662 141.289 15.5978 143.282 15.5978 144.964 15.5978 146.414 16.132 147.242 17.0987L147.242 15.5469C147.242 14.3004 146.155 13.4864 144.498 13.4864 143.178 13.4864 141.936 13.9952 140.9 14.9364L139.606 12.6724C141.133 11.3241 143.1 10.7391 145.068 10.7391 147.941 10.7391 150.555 11.8583 150.555 15.3943L150.555 23.3311ZM144.602 21.4487C145.663 21.4487 146.698 21.0925 147.242 20.3802L147.242 18.8539C146.698 18.1417 145.663 17.7601 144.602 17.7601 143.308 17.7601 142.246 18.4469 142.246 19.6171 142.246 20.7873 143.308 21.4487 144.602 21.4487ZM157.078 23.3311 153.791 23.3311 153.791 6.36364 157.078 6.36364 157.078 23.3311ZM166.216 23.6364C162.411 23.6364 159.537 21.118 159.537 17.175 159.537 13.6136 162.229 10.7391 166.009 10.7391 169.762 10.7391 172.273 13.4864 172.273 17.4803L172.273 18.2434 162.98 18.2434C163.213 19.7443 164.456 20.9908 166.578 20.9908 167.639 20.9908 169.089 20.5583 169.891 19.7952L171.367 21.932C170.124 23.0513 168.157 23.6364 166.216 23.6364ZM169.115 16.0048C169.011 14.8347 168.183 13.3847 166.009 13.3847 163.964 13.3847 163.084 14.7838 162.954 16.0048L169.115 16.0048Z" fill="#17191B"/><path d="M35.4545 16.0084C35.4568 17.8104 34.9526 19.5764 34.0002 21.103 31.3918 26.3209 25.1021 30 17.7558 30 16.1755 30 14.5038 29.7714 12.9617 29.4495 11.4195 29.1276 9.81018 28.5512 8.40942 27.83 7.24788 27.2301 6.16022 26.4955 5.16867 25.6411 1.45108 22.4233 0.000328946 17.9481 0.854022 12.6682 0.973053 11.9369 1.23492 11.2251 1.49679 10.531 1.74866 9.8639 2.10361 9.20951 1.94316 8.47781 1.79532 7.80714 1.27611 7.28152 0.91449 6.72287 0.258865 5.71112-0.426518 3.52893 0.335283 2.41666 1.4268 0.821128 3.67626 1.90229 4.5428 3.14693 4.97822 3.77188 5.73716 5.27574 5.20129 6.3995 5.87453 5.7128 7.24386 5.36885 8.16302 5.36549 9.769 5.35999 11.3183 6.14555 12.2379 7.46917 13.1716 8.81362 12.8345 10.1315 11.1957 10.6684 10.3761 10.9372 9.45094 10.8967 8.6063 10.801 7.43217 10.6686 5.78168 9.42972 4.89252 10.7632 4.3445 11.5851 4.05906 12.7807 4.14024 13.762 4.35307 16.3269 7.43408 17.6345 9.69115 17.2049 12.1341 16.7401 13.5404 14.9952 14.9397 13.0913 17.1061 10.1444 19.894 7.47444 23.3979 6.72622 24.211 6.50547 25.0495 6.39368 25.8918 6.39376 31.1735 6.39376 35.4545 10.6983 35.4545 16.0084ZM28.4993 4.11583C26.9995 3.30083 25.3331 3.23812 23.7002 3.62683 22.0576 4.01841 20.3316 5.26425 18.6152 5.12925 16.8678 4.99138 16.6114 3.08206 17.4327 1.85466 19.2344-0.836396 23.53-0.235858 25.7718 1.36422 26.3387 1.7688 26.8611 2.23298 27.3302 2.74888 27.6892 3.14405 28.0258 3.85924 28.4993 4.11583Z" fill="#1C96F8"/></g></svg>